<?xml version="1.0" standalone="no"?>
<!DOCTYPE svg PUBLIC "-//W3C//DTD SVG 1.1//EN" "http://www.w3.org/Graphics/SVG/1.1/DTD/svg11.dtd" >
<svg xmlns="http://www.w3.org/2000/svg">
<metadata></metadata>
<defs>
<font id="league_gothicregular" horiz-adv-x="690" >
<font-face units-per-em="2048" ascent="1505" descent="-543" />
<missing-glyph horiz-adv-x="315" />
<glyph horiz-adv-x="2048" />
<glyph horiz-adv-x="2048" />
<glyph unicode="&#xd;" horiz-adv-x="2048" />
<glyph unicode=" "  horiz-adv-x="315" />
<glyph unicode="&#x09;" horiz-adv-x="315" />
<glyph unicode="&#xa0;" horiz-adv-x="315" />
<glyph unicode="!" horiz-adv-x="387" d="M74 1505l55 -1099h129l55 1099h-239zM86 227v-227h215v227h-215z" />
<glyph unicode="&#x22;" horiz-adv-x="532" d="M109 954h153l31 551h-215zM362 954h154l31 551h-215z" />
<glyph unicode="#" horiz-adv-x="1232" d="M76 633l-27 -195h199l-60 -438h197l59 438h261l-60 -438h197l59 438h191l26 195h-190l37 258h192l27 194h-193l58 420h-197l-57 -420h-260l57 420h-197l-57 -420h-197l-26 -194h196l-37 -258h-198zM471 633l37 258h260l-37 -258h-260z" />
<glyph unicode="$" horiz-adv-x="692" d="M410 1628h-123v-131q-115 -25 -170 -131q-45 -86 -45 -211q0 -66 20 -125q30 -100 117 -227q52 -77 129 -176q42 -62 55 -84q58 -100 58 -174q0 -77 -21 -127q-23 -58 -72 -58q-63 0 -96 58q-30 49 -33 129l-192 -13q3 -134 61 -227q64 -103 189 -125v-221h123v217 q127 14 192 127q53 90 53 242q0 65 -18 127q-36 106 -119 225q-9 13 -32.5 47t-36.5 51q-78 102 -115 166q-58 97 -58 172q0 57 21 111q20 51 63 51q44 1 65 -33t28 -92l192 25q-14 118 -63 186q-62 85 -172 96v125z" />
<glyph unicode="%" horiz-adv-x="1001" d="M373 911v437q-3 48 -21 86q-21 40 -52 64t-85 24q-62 0 -92 -27q-68 -59 -68 -147v-437q0 -48 19 -88q43 -88 141 -88q60 0 90 27q65 56 68 149zM158 0h137l547 1505h-131zM250 1348v-437q0 -55 -35 -55q-42 0 -37 55v437q-2 10 2 26q12 29 35 29q16 0 21 -8 q14 -21 14 -47zM948 158v436q-3 50 -20 88q-21 40 -52 64t-85 24q-63 0 -93 -27q-67 -58 -67 -149v-436q0 -50 18 -88q46 -86 142 -86q61 0 90 26q64 55 67 148zM825 594v-436q0 -13 -4 -29q-12 -29 -30 -29q-16 0 -23 11q-16 20 -14 47v436q-2 11 2 27q4 9 7 14t10 9.5 t18 4.5q15 0 20 -8q14 -21 14 -47z" />
<glyph unicode="&#x26;" horiz-adv-x="854" d="M813 653l-176 33q-26 -152 -47 -211q-63 93 -148 285q94 124 148 227q97 181 28 371q-62 164 -235 164q-105 0 -160 -52q-107 -98 -110 -276q0 -226 106 -442q-40 -61 -63.5 -101.5t-51.5 -99t-41.5 -117t-13.5 -119.5q0 -132 86 -231q87 -100 217 -100t252 139 q38 -41 68 -62q74 -55 112 -69q19 -8 29 -8v235q-8 3 -35 23q-19 12 -57 53q45 91 70 207q17 78 22 151zM461 1200q0 -95 -101 -252q-32 79 -41 125q-26 111 -8 197q16 76 72 76q33 0 49 -23q32 -43 29 -123zM487 262q-24 -30 -38.5 -45t-37.5 -28t-49 -13q-42 0 -69 43 q-25 37 -30 101t5 104q15 88 45 133q65 -120 174 -295z" />
<glyph unicode="'" horiz-adv-x="309" d="M88 954h154l30 551h-215z" />
<glyph unicode="(" horiz-adv-x="561" d="M520 1505l-162 84q-81 -127 -147 -280q-145 -337 -145 -664q0 -198 45 -362q84 -326 247 -580l162 84q-72 103 -129 238q-129 301 -129 620q0 192 41 350q79 311 217 510z" />
<glyph unicode=")" horiz-adv-x="561" d="M203 1589l-162 -84q72 -110 129 -239q129 -315 129 -621q0 -190 -41 -348q-83 -316 -217 -510l162 -84q79 125 145 279q148 344 148 663q0 198 -45 365q-84 313 -248 579z" />
<glyph unicode="*" horiz-adv-x="677" d="M262 1505l19 -176l-164 70l-43 -148l172 -34l-115 -138l131 -80l76 152l78 -152l131 80l-115 138l172 34l-43 148l-164 -70l19 176h-154z" />
<glyph unicode="+" horiz-adv-x="1060" d="M74 821v-172h370v-346h172v346h371v172h-371v346h-172v-346h-370z" />
<glyph unicode="," horiz-adv-x="309" d="M260 0v227h-215v-227h72l-72 -266h102z" />
<glyph unicode="-" horiz-adv-x="444" d="M74 649v-194h297v194h-297z" />
<glyph unicode="." horiz-adv-x="321" d="M53 227v-227h215v227h-215z" />
<glyph unicode="/" horiz-adv-x="720" d="M551 1505l-543 -1652h168l537 1652h-162z" />
<glyph unicode="0" horiz-adv-x="724" d="M657 309v887q-3 95 -36 162q-29 67 -89 112q-69 52 -170 52q-103 0 -172 -52q-55 -42 -86 -112q-33 -67 -36 -162v-887q3 -97 36 -164q30 -67 86 -110q63 -51 172 -51q107 0 170 51q61 46 89 110q33 67 36 164zM436 1196v-887q0 -36 -8 -55q-14 -55 -66 -55q-27 0 -43 16 q-30 35 -30 94v887q0 34 8 55q17 56 65 56q29 0 46 -17q28 -35 28 -94z" />
<glyph unicode="1" horiz-adv-x="475" d="M25 1180h147v-1180h221v1505h-133q-17 -38 -49 -78q-81 -86 -186 -106v-141z" />
<glyph unicode="2" horiz-adv-x="731" d="M61 1028h222v105q0 80 14 129q17 55 59 55q44 0 62 -62q12 -42 12 -122q-3 -120 -63 -299q-51 -151 -127 -297q-88 -170 -185 -318v-219h600v219h-350q129 217 217 422q129 305 129 506q0 174 -61 266q-74 109 -234 109q-166 0 -237 -119q-58 -97 -58 -270v-105z" />
<glyph unicode="3" horiz-adv-x="686" d="M229 680h19q65 -3 108 -27q62 -41 62 -155q-2 -39 -2 -129t-8 -127q-14 -64 -62 -64q-21 0 -34.5 11.5t-22.5 41.5q-19 62 -19 203h-217q0 -190 43 -289q68 -161 250 -161q71 0 119 26q87 48 129 160q33 96 37 172q2 23 2 43q0 149 -27 252.5t-100 161.5l2 2 q54 54 80 145t26 252q0 96 -39 176q-72 148 -247 148q-178 0 -244 -160q-39 -97 -39 -291h217q0 148 14 205q10 51 52 51q48 0 61 -65q8 -39 8 -129v-121q0 -52 -14 -80q-13 -32 -49 -47.5t-105 -20.5v-184z" />
<glyph unicode="4" horiz-adv-x="684" d="M367 328v-328h202v328h103v194h-103v983h-221l-323 -983v-194h342zM213 522l129 471l12 45h13v-516h-154z" />
<glyph unicode="5" horiz-adv-x="704" d="M430 713v-336q0 -112 -16 -158q-15 -43 -52 -43q-38 0 -53 45q-14 41 -14 158v59h-221q0 -204 43 -301q66 -153 245 -153q177 0 246 145q43 88 43 248v336q0 93 -37 174q-63 137 -208 137q-24 3 -46 -6q-34 -11 -81 -45v313h344v219h-535v-792h186q0 30 25 69 q29 41 61 41q34 0 52 -30.5t18 -79.5z" />
<glyph unicode="6" horiz-adv-x="700" d="M643 309v307q0 115 -37 191q-62 127 -209 127q-47 0 -110 -37v268q0 87 14 125q12 39 53 39q25 0 38.5 -12t19.5 -41q10 -49 10 -205h221v94q0 139 -41 219q-73 138 -248 138t-248 -138q-40 -78 -40 -219v-856q0 -109 43 -188q72 -137 245 -137q174 0 246 137 q43 79 43 188zM287 244v456q2 22 18.5 42t48.5 20q31 0 49.5 -24.5t18.5 -43.5v-450q0 -19 -18.5 -43.5t-49.5 -24.5q-33 0 -50 24t-17 44z" />
<glyph unicode="7" horiz-adv-x="589" d="M340 1286l-225 -1286h229l221 1284v221h-557v-219h332z" />
<glyph unicode="8" horiz-adv-x="696" d="M643 322v176q0 87 -29.5 165.5t-85.5 131.5q50 50 76.5 123t26.5 153v127q0 100 -37 176q-72 148 -246 148q-172 0 -244 -148q-38 -78 -38 -176v-127q0 -80 26 -153t76 -123q-56 -53 -85.5 -131.5t-29.5 -165.5v-176q0 -41 13 -105q18 -92 77 -154q75 -79 205 -79t205 79 q60 63 78 154q12 59 12 105zM414 1120q0 -108 -11 -172q-12 -55 -55 -55q-44 0 -53 55q-12 54 -10.5 172t14.5 162q12 45 49 45q43 0 55 -51q11 -64 11 -156zM428 410q0 -99 -10 -164q-12 -60 -70 -60q-46 0 -61 52q-15 49 -16.5 178t10.5 194q9 66 67 66t70 -66 q10 -72 10 -200z" />
<glyph unicode="9" horiz-adv-x="700" d="M57 1196v-293q0 -114 37 -190q62 -127 209 -127q48 0 111 37v-283q0 -81 -13 -125q-14 -39 -55 -39q-25 0 -38 12t-19 41q-10 49 -10 205h-222v-94q0 -139 41 -217q71 -139 248 -139t248 139q41 78 41 217v856q0 108 -43 190q-74 136 -246 136t-246 -136 q-43 -82 -43 -190zM414 1262v-443q-2 -22 -19 -41.5t-49 -19.5q-31 0 -49 24t-18 43v437q0 19 18 43t49 24q34 0 51 -23.5t17 -43.5z" />
<glyph unicode=":" horiz-adv-x="362" d="M74 1120v-227h215v227h-215zM74 227v-227h215v227h-215z" />
<glyph unicode=";" horiz-adv-x="362" d="M74 1120v-227h215v227h-215zM289 0v227h-215v-227h71l-71 -266h102z" />
<glyph unicode="&#x3c;" horiz-adv-x="1058" d="M74 809v-160l911 -475v199l-698 356l698 356v199z" />
<glyph unicode="=" horiz-adv-x="1058" d="M74 1036v-172h911v172h-911zM74 649v-172h911v172h-911z" />
<glyph unicode="&#x3e;" horiz-adv-x="1058" d="M985 649v160l-911 475v-199l698 -356l-698 -356v-199z" />
<glyph unicode="?" horiz-adv-x="645" d="M211 406h190v256q0 51 13 108q21 88 71 172q8 13 21 35.5t18 30.5q29 50 41.5 73.5t25.5 65t13 80.5q0 98 -45 172q-68 111 -221 114q-126 3 -217 -100q-75 -84 -96 -153l178 -84q18 54 43 90q41 55 88 55q40 0 59 -37q12 -30 8 -57q-9 -42 -53 -113q-64 -105 -92 -182 q-45 -123 -45 -270v-256zM199 227v-227h215v227h-215z" />
<glyph unicode="@" horiz-adv-x="872" d="M815 399v793q0 43 -18 99t-56 104q-103 127 -301 127q-199 0 -299 -127q-39 -48 -57 -103.5t-18 -99.5v-889q0 -42 18 -94.5t57 -99.5q101 -125 299 -125q214 0 320 143l-152 86q-51 -63 -168 -63q-99 0 -151 59q-39 42 -39 94v889q0 49 39 96q54 62 151 62 q100 0 154 -62q37 -45 37 -96v-45q-6 12 -27 33q-38 34 -86 34q-77 0 -111 -47t-34 -123v-485q0 -172 145 -172q28 0 51 10q43 21 62 58l20 -56h164zM631 1028v-455q0 -53 -49 -53q-47 0 -47 53v455q0 53 47 53q23 0 36 -14t13 -39z" />
<glyph unicode="A" horiz-adv-x="765" d="M20 0h216l40 307h213l41 -307h215l-227 1505h-270zM395 1016l64 -475h-152l64 475l6 39h12z" />
<glyph unicode="B" horiz-adv-x="745" d="M82 0h272q188 9 271 135q71 109 71 291q0 114 -24 184q-48 139 -129 185q77 71 108 137q29 62 29 174q0 216 -102 311q-95 88 -302 88h-194v-1505zM303 885v401q65 0 98 -22q66 -45 66 -179q0 -133 -66 -178q-33 -22 -98 -22zM303 219v463q66 0 98 -23q66 -48 66 -208 q0 -161 -66 -209q-32 -23 -98 -23z" />
<glyph unicode="C" horiz-adv-x="708" d="M657 516h-206v-207q0 -34 -9 -55q-18 -55 -75 -55q-27 0 -43 16q-32 37 -35 94v887q4 39 10 55q21 56 68 56q34 0 51 -17q33 -36 33 -94v-207h206v207q-3 95 -36 162q-29 67 -89 112q-69 52 -170 52q-103 0 -172 -52q-55 -42 -86 -112q-33 -67 -36 -162v-887 q3 -97 36 -164q30 -67 86 -110q63 -51 172 -51q107 0 170 51q61 46 89 110q33 67 36 164v207z" />
<glyph unicode="D" horiz-adv-x="761" d="M82 0h174q156 0 243.5 35.5t131.5 120.5q40 80 52.5 215t12.5 381q0 247 -12.5 382.5t-52.5 215.5q-44 85 -131 120t-244 35h-174v-1505zM303 221v1063q63 0 94 -15t47 -65q18 -68 21 -160q2 -72 2 -290q0 -219 -2 -291q-3 -96 -21 -160q-16 -52 -47 -67t-94 -15z" />
<glyph unicode="E" horiz-adv-x="628" d="M82 1505v-1505h506v227h-285v414h205v242h-205v395h285v227h-506z" />
<glyph unicode="F" horiz-adv-x="616" d="M608 1278v227h-526v-1505h221v655h205v228h-205v395h305z" />
<glyph unicode="G" horiz-adv-x="737" d="M436 965h221v231q-3 95 -36 162q-29 67 -89 112q-69 52 -170 52q-103 0 -172 -52q-55 -42 -86 -112q-33 -67 -36 -162v-887q-3 -93 24 -164q26 -66 78 -110q57 -51 158 -51t172 88l26 -72h131v750h-309v-187h88v-272q0 -36 -8 -55q-14 -56 -66 -56q-26 0 -43 17 q-30 35 -30 94v905q0 34 8 55q17 56 65 56q29 0 46 -17q28 -35 28 -94v-231z" />
<glyph unicode="H" horiz-adv-x="778" d="M475 655v-655h221v1505h-221v-622h-172v622h-221v-1505h221v655h172z" />
<glyph unicode="I" horiz-adv-x="385" d="M82 1505v-1505h221v1505h-221z" />
<glyph unicode="J" horiz-adv-x="423" d="M12 203v-217q184 -11 269 80q71 77 71 213v1226h-221v-1192q0 -52 -18 -73q-35 -46 -101 -37z" />
<glyph unicode="K" horiz-adv-x="768" d="M303 1505h-221v-1505h221v532l51 123l13 31h6l6 -31l153 -655h216l-230 1010l203 495h-215l-184 -501l-11 -25h-8v526z" />
<glyph unicode="L" horiz-adv-x="604" d="M82 1505v-1505h514v205h-293v1300h-221z" />
<glyph unicode="M" horiz-adv-x="991" d="M449 0h94l141 946l8 64h13v-1010h204v1505h-270l-131 -688l-10 -80h-4l-11 80l-131 688h-270v-1505h205v1010h12l8 -64z" />
<glyph unicode="N" horiz-adv-x="808" d="M315 784l215 -784h197v1505h-203v-854h-12l-18 70l-215 784h-197v-1505h203v854h12z" />
<glyph unicode="O" horiz-adv-x="724" d="M657 309v887q-3 95 -36 162q-29 67 -89 112q-69 52 -170 52q-103 0 -172 -52q-55 -42 -86 -112q-33 -67 -36 -162v-887q3 -97 36 -164q30 -67 86 -110q63 -51 172 -51q107 0 170 51q61 46 89 110q33 67 36 164zM436 1196v-887q0 -36 -8 -55q-14 -55 -66 -55q-27 0 -43 16 q-30 35 -30 94v887q0 34 8 55q17 56 65 56q29 0 46 -17q28 -35 28 -94z" />
<glyph unicode="P" horiz-adv-x="720" d="M82 1505v-1505h221v602q162 0 266 98q123 116 123 355q0 240 -123 356q-99 94 -266 94h-221zM303 827v453q99 0 135 -53q31 -46 31 -180q0 -132 -31 -173q-34 -47 -135 -47z" />
<glyph unicode="Q" horiz-adv-x="729" d="M657 309v887q-3 95 -36 162q-29 67 -89 112q-69 52 -170 52q-103 0 -172 -52q-55 -42 -86 -112q-33 -67 -36 -162v-887q3 -97 36 -164q30 -67 86 -110q63 -51 172 -51q55 0 111 18q72 -117 227 -117v189q-58 11 -88 53q24 56 27 66q18 65 18 116zM436 1196v-887 q0 -36 -8 -55q-14 -55 -66 -55q-27 0 -43 16q-30 35 -30 94v887q0 34 8 55q17 56 65 56q29 0 46 -17q28 -35 28 -94z" />
<glyph unicode="R" horiz-adv-x="739" d="M477 0h221l-141 729q61 41 92 132.5t31 209.5q0 217 -91 325.5t-286 108.5h-221v-1505h221v635h59zM303 840v446q70 0 105 -31q59 -52 59 -192q0 -139 -59 -191q-36 -32 -105 -32z" />
<glyph unicode="S" horiz-adv-x="702" d="M449 1102l217 20q0 160 -56 267q-73 136 -254 133q-143 -3 -223 -115q-65 -94 -65 -238q0 -61 18 -120q34 -117 109 -234q74 -115 139 -207q30 -46 57 -90q58 -104 58 -166q0 -166 -91 -166q-63 0 -86 82q-18 53 -18 174l-217 -20q0 -203 55 -303q74 -135 266 -135 q167 0 244 114q64 95 64 264q0 107 -66 236q-41 80 -141 229q-94 137 -119 181q-55 95 -55 161q0 147 75 150q48 0 72 -70q17 -52 17 -147z" />
<glyph unicode="T" horiz-adv-x="647" d="M4 1278h209v-1278h221v1278h209v227h-639v-227z" />
<glyph unicode="U" horiz-adv-x="749" d="M670 1505h-221v-1196q0 -34 -9 -55q-14 -55 -65 -55q-27 0 -43 16q-31 36 -31 94v1196h-221v-1196q3 -95 37 -164q30 -67 86 -110q63 -51 172 -51q107 0 170 51q59 45 88 110q34 69 37 164v1196z" />
<glyph unicode="V" horiz-adv-x="716" d="M483 1505l-110 -827l-8 -64h-13l-8 64l-111 827h-215l230 -1505h221l229 1505h-215z" />
<glyph unicode="W" horiz-adv-x="1036" d="M399 0l103 713l12 88h8l13 -88l102 -713h172l203 1505h-205l-88 -782l-4 -49h-17l-6 49l-94 782h-160l-94 -782l-6 -49h-16l-5 49l-88 782h-204l202 -1505h172z" />
<glyph unicode="X" horiz-adv-x="737" d="M233 0l127 449l5 18h8l4 -18l127 -449h217l-244 791l240 714h-217l-121 -381l-6 -18h-8l-7 18l-120 381h-218l240 -714l-244 -791h217z" />
<glyph unicode="Y" horiz-adv-x="700" d="M342 1024l-111 481h-217l226 -864v-641h221v641l225 864h-217l-111 -481l-6 -14h-4z" />
<glyph unicode="Z" horiz-adv-x="626" d="M20 238v-238h586v219h-352l352 1067v219h-536v-219h297z" />
<glyph unicode="[" horiz-adv-x="538" d="M481 1309v196h-399v-1718h399v197h-202v1325h202z" />
<glyph unicode="\" horiz-adv-x="792" d="M784 -180l-614 1872h-162l608 -1872h168z" />
<glyph unicode="]" horiz-adv-x="538" d="M57 1505v-196h203v-1325h-203v-197h400v1718h-400z" />
<glyph unicode="^" horiz-adv-x="1101" d="M668 1505h-234l-381 -696h199l299 543l299 -543h199z" />
<glyph unicode="_" horiz-adv-x="1210" d="M74 -154v-172h1063v172h-1063z" />
<glyph unicode="`" horiz-adv-x="1024" d="M508 1489h-215l162 -184h159z" />
<glyph unicode="a" horiz-adv-x="661" d="M395 854v-123q-2 -5 -5 -9.5t-9 -9.5t-11.5 -8.5t-15.5 -9t-16.5 -9t-20 -10.5t-20.5 -11q-104 -55 -162 -127q-86 -107 -86 -277q0 -154 64 -225q41 -51 102 -51q60 0 109 39q35 28 57 67h14q0 -66 19 -90h202q-14 86 -14 195v688q0 109 -76 182q-75 72 -176 72 q-120 0 -198 -88q-80 -90 -80 -211v-47h207v53q0 21 4 53q11 59 55 59q37 0 51 -34q6 -20 6 -68zM395 541v-287q0 -29 -25 -48.5t-61 -19.5q-33 0 -47 43q-10 29 -10 62q0 84 35.5 151.5t107.5 98.5z" />
<glyph unicode="b" horiz-adv-x="686" d="M82 1505v-1505h207v74q34 -30 53 -45q61 -45 111 -45q75 0 122 75q37 61 37 144v715q0 81 -37 145q-49 74 -122 74q-31 0 -58 -15q-50 -22 -106 -75v458h-207zM289 246v628q0 25 19 46.5t42 21.5t39.5 -19.5t16.5 -48.5v-628q0 -29 -16.5 -48.5t-39.5 -19.5 q-24 0 -42.5 19.5t-18.5 48.5z" />
<glyph unicode="c" horiz-adv-x="645" d="M272 258v604q0 26 2.5 42.5t16 32t39.5 15.5q35 0 47 -19t12 -71v-135h207v88q0 180 -68 254q-62 68 -198 68q-123 0 -189 -72q-75 -81 -75 -260v-490q0 -179 75 -260q65 -71 189 -71q136 0 198 67q68 74 68 254v109h-207v-156q0 -52 -12 -71t-47 -19q-26 0 -39.5 15.5 t-16 32t-2.5 42.5z" />
<glyph unicode="d" horiz-adv-x="686" d="M604 0v1505h-207v-458q-34 30 -53 45q-61 45 -111 45q-75 0 -120 -74q-39 -62 -39 -145v-715q0 -85 39 -144q44 -75 120 -75q32 0 60 14q46 21 104 76v-74h207zM397 874v-628q0 -29 -18.5 -48.5t-42.5 -19.5q-23 0 -39 19.5t-16 48.5v628q0 29 16 48.5t39 19.5t42 -21.5 t19 -46.5z" />
<glyph unicode="e" horiz-adv-x="659" d="M600 401h-192v-122q0 -34 -9 -58q-14 -55 -65 -55q-27 0 -43 16q-30 39 -33 97v243h342v326q-3 71 -33 143q-67 146 -233 146q-103 0 -154 -45q-105 -87 -114 -250v-563q3 -78 32 -148q66 -147 234 -147q101 0 155 45q55 44 81.5 102t31.5 141v129zM258 684v158 q3 39 10 57q18 57 66 57q29 0 45 -16q29 -36 29 -98v-158h-150z" />
<glyph unicode="f" horiz-adv-x="475" d="M125 0h207v934h104v186h-104v29v49q0 32 6 62q14 69 59 69q15 0 43 -4q3 -1 9.5 -2t9.5 -2v178l-25 6q-21 8 -72 8q-154 0 -206 -137q-31 -81 -31 -225v-31h-105v-186h105v-934z" />
<glyph unicode="g" horiz-adv-x="700" d="M588 541v317q0 15 -2 21t-2 22q-2 4 -6 27q43 24 120 24v185q-43 0 -98 -41q-33 -23 -72 -62q-73 103 -206 103q-99 0 -150 -45q-101 -83 -113 -240v-305q2 -35 17 -92q28 -103 102 -152q-48 -25 -86 -72q-43 -53 -43 -96q0 -116 125 -149q-71 -33 -111 -70 q-51 -48 -51 -100q0 -117 92 -168q79 -46 240 -49q146 0 242 61q112 73 112 225q0 130 -94 197q-71 48 -192 63q-68 10 -107 23q-51 13 -51 47q0 25 29 51q6 -2 20 -2h19q96 0 151 43q106 81 115 234zM385 844v-307q0 -31 -6 -52q-16 -49 -57 -49q-23 0 -37 17 q-26 29 -23 84v307q-3 27 4 51q12 51 56 51q25 0 38 -16q25 -36 25 -86zM289 -51l106 -21q70 -11 94 -32q17 -17 17 -48q0 -36 -53 -57q-46 -18 -105 -18q-68 0 -101.5 21t-33.5 56q0 55 76 99z" />
<glyph unicode="h" d="M289 0v883q6 10 18 26q27 27 49 27q50 0 50 -49v-887h206v918q0 81 -37 145q-45 74 -118 74q-27 0 -54 -15q-37 -20 -90 -73q-22 -22 -24 -23v479h-207v-1505h207z" />
<glyph unicode="i" horiz-adv-x="370" d="M82 1505v-207h207v207h-207zM82 0h207v1120h-207v-1120z" />
<glyph unicode="j" horiz-adv-x="364" d="M76 1505v-207h207v207h-207zM283 1120h-207v-1147v-47q0 -21 -4 -53q-14 -63 -60 -63q-11 0 -39 4q-3 1 -9 2t-9 2v-191q12 -4 20 -6q21 -6 70 -6q157 0 209 135q29 74 29 221v1149z" />
<glyph unicode="k" horiz-adv-x="641" d="M289 1505h-207v-1505h207v387l26 66l7 16h10l4 -16l102 -453h199l-188 756l149 364h-186l-101 -293l-12 -36h-10v714z" />
<glyph unicode="l" horiz-adv-x="370" d="M82 0h207v1505h-207v-1505z" />
<glyph unicode="m" horiz-adv-x="1021" d="M616 0v883q4 8 23 26q27 27 55 27q56 0 56 -49v-887h194v918q0 81 -37 145q-45 74 -119 74q-24 0 -55 -17q-61 -36 -100 -78q-21 -21 -33 -30q-44 125 -139 125q-26 0 -53 -15q-48 -26 -95 -73q-22 -22 -24 -23v94h-207v-1120h207v883q6 10 22 26q27 27 56 27 q55 0 55 -49v-887h194z" />
<glyph unicode="n" d="M289 0v883q6 10 18 26q27 27 49 27q50 0 50 -49v-887h206v918q0 81 -37 145q-45 74 -118 74q-27 0 -54 -15q-37 -20 -90 -73q-22 -22 -24 -23v94h-207v-1120h207z" />
<glyph unicode="o" horiz-adv-x="657" d="M594 272v576q-3 71 -33 143q-67 146 -233 146q-103 0 -154 -45q-102 -86 -111 -250v-563q3 -76 33 -148q66 -147 232 -147q101 0 155 45q54 44 80 102.5t31 140.5zM399 842v-563q3 -34 -6 -58q-14 -55 -65 -55q-27 0 -43 16q-30 38 -27 97v563q-3 33 6 57q15 57 64 57 q29 0 45 -16q29 -36 26 -98z" />
<glyph unicode="p" horiz-adv-x="686" d="M82 1120v-1505h207v459q34 -30 53 -45q61 -45 111 -45q75 0 122 75q37 61 37 144v715q0 81 -37 145q-49 74 -122 74q-31 0 -58 -15q-50 -22 -106 -75v73h-207zM289 246v628q0 29 18.5 48.5t42.5 19.5q23 0 39.5 -19.5t16.5 -48.5v-628q0 -29 -16.5 -48.5t-39.5 -19.5 t-42 21.5t-19 46.5z" />
<glyph unicode="q" horiz-adv-x="686" d="M604 -385v1505h-207v-73q-34 30 -53 45q-61 45 -111 45q-75 0 -120 -74q-39 -62 -39 -145v-715q0 -85 39 -144q44 -75 120 -75q32 0 60 14q46 21 104 76v-459h207zM397 874v-628q0 -25 -19 -46.5t-42 -21.5t-39 19.5t-16 48.5v628q0 29 16 48.5t39 19.5q24 0 42.5 -19.5 t18.5 -48.5z" />
<glyph unicode="r" horiz-adv-x="503" d="M496 907v230q-94 0 -158 -60q-22 -22 -34.5 -45t-14.5 -37v125h-207v-1120h207v778q0 65 45 103q36 34 104 34q34 0 58 -8z" />
<glyph unicode="s" horiz-adv-x="630" d="M395 834h193q0 131 -41 200q-63 106 -223 103q-132 -3 -201 -103q-51 -77 -51 -200q0 -105 63 -199q35 -52 133 -146q42 -42 64 -66.5t43.5 -62t21.5 -69.5q0 -135 -71 -135q-55 0 -80 63q-17 40 -17 107h-192q0 -131 49 -215q74 -127 240 -127q132 0 206 102 q58 81 58 205q0 93 -62 194q-33 52 -129 148q-60 56 -90 96q-45 55 -45 105q0 56 12 86q14 45 52 45q41 0 59 -45q8 -27 8 -86z" />
<glyph unicode="t" horiz-adv-x="501" d="M332 1397h-207v-277h-105v-186h105v-574q0 -154 31 -237q52 -139 206 -139q50 0 80 6q5 1 15.5 4t15.5 4v203q-4 -1 -12 -2t-12 -2q-28 -4 -52 -4q-43 0 -57 67q-8 37 -8 117v557h141v186h-141v277z" />
<glyph unicode="u" d="M401 1120v-882q-13 -22 -18 -27q-27 -27 -49 -27q-23 0 -36 10t-13 39v887h-207v-917q0 -83 37 -144q44 -75 118 -75q27 0 56 16q35 19 90 74q18 18 22 20v-94h207v1120h-207z" />
<glyph unicode="v" horiz-adv-x="602" d="M199 0h204l183 1120h-201l-68 -649l-8 -72h-16l-8 72l-68 649h-201z" />
<glyph unicode="w" horiz-adv-x="905" d="M547 0h172l166 1120h-189l-65 -585l-8 -64h-13l-10 64l-86 585h-123l-86 -585l-10 -64h-12l-9 64l-65 585h-189l166 -1120h172l80 535l11 63h8l10 -63z" />
<glyph unicode="x" horiz-adv-x="618" d="M209 578l-193 -578h201l84 283l6 30h4l6 -30l84 -283h201l-192 578l176 542h-195l-74 -262l-6 -31h-4l-6 31l-74 262h-194z" />
<glyph unicode="y" horiz-adv-x="634" d="M33 -213v-184q50 -4 67 -4h25q114 0 197 100q74 89 90 217l198 1204h-202l-82 -688l-4 -57h-9l-4 57l-82 688h-202l190 -1153q0 -34 -8 -61q-18 -65 -68 -103q-21 -16 -55.5 -19t-38.5 1q-10 0 -12 2z" />
<glyph unicode="z" horiz-adv-x="532" d="M12 168v-168h504v188h-285l285 764v168h-459v-188h240z" />
<glyph unicode="{" horiz-adv-x="688" d="M631 1350v172q-125 2 -206.5 -13.5t-131.5 -54.5q-52 -41 -76 -113t-24 -188v-397q0 -37 -25 -80q-33 -60 -107 -60v-163q73 -3 107 -62q25 -46 25 -78v-397q0 -116 24 -188t76 -113q50 -39 131.5 -54.5t206.5 -13.5v172q-72 0 -116 7.5t-71 29.5q-55 44 -55 160v397 q0 76 -32 129t-95 93q63 39 95 91t32 130v397q0 116 55 160q27 22 71 29.5t116 7.5z" />
<glyph unicode="|" horiz-adv-x="356" d="M82 -512h192v2204h-192v-2204z" />
<glyph unicode="}" horiz-adv-x="688" d="M496 756v397q0 116 -23.5 188t-75.5 113q-50 39 -132 54.5t-208 13.5v-172q72 0 116 -7.5t71 -29.5q55 -44 55 -160v-397q0 -78 32 -130t95 -91q-63 -40 -95 -93t-32 -129v-397q0 -116 -55 -160q-27 -22 -71 -29.5t-116 -7.5v-172q126 -2 208 13.5t132 54.5 q52 41 75.5 113t23.5 188v397q0 34 24 78q34 59 107 62v163q-74 0 -107 60q-24 41 -24 80z" />
<glyph unicode="~" horiz-adv-x="1280" d="M113 1352l135 -58q14 40 47 90q64 91 154 91q70 0 178 -74q54 -34 83 -50.5t82 -33.5t107 -17q82 0 145 48q119 94 181 262l-135 57q-20 -50 -48 -92q-59 -90 -143 -90q-74 0 -174 71q-6 4 -29 18t-31 19t-29.5 17t-33 16.5t-32.5 12.5t-38 11t-39 6t-44 3 q-89 0 -154 -47q-128 -100 -182 -260z" />
<glyph unicode="&#xa1;" horiz-adv-x="387" d="M86 1120v-227h215v227h-215zM129 715l-55 -1100h239l-55 1100h-129z" />
<glyph unicode="&#xa2;" horiz-adv-x="636" d="M397 1567h-123v-242q-208 -30 -208 -328v-489q0 -300 208 -330v-301h123v303q97 14 144 88.5t47 229.5v108h-189v-155q0 -49 -18 -70t-55 -21q-38 0 -55 27t-17 64v604q0 36 17 63t55 27q37 0 55 -20.5t18 -69.5v-135h189v88q0 155 -47 229q-48 71 -144 86v244z" />
<glyph unicode="&#xa3;" horiz-adv-x="817" d="M510 1120h213q0 177 -66 279q-83 126 -266 123q-152 -3 -231 -123q-64 -98 -64 -250q0 -84 78 -342l6 -21h-147v-137h188q31 -108 31 -174q0 -98 -37 -199q-49 -8 -92 -45q-73 -67 -119 -168l146 -79q10 30 28 51q37 51 86 51q8 0 16.5 -1.5t18.5 -4.5t17 -6t19.5 -9 t18 -9t20 -10.5t19.5 -10.5q96 -51 144 -51q102 0 170.5 99t80.5 282l-188 22q-3 -101 -29 -145q-23 -42 -53 -45q-39 3 -63 22q-38 23 -70 37q57 117 57 219q0 72 -24 174h174v137h-211l-6 25q-24 78 -35.5 119t-23 104.5t-11.5 114.5q0 70 21 113q23 55 69 55q66 0 92 -60 q23 -53 23 -137z" />
<glyph unicode="&#xa5;" horiz-adv-x="720" d="M74 477v-137h176v-340h221v340h176v137h-176v137h176v138h-147l196 753h-217l-110 -481l-7 -14h-4l-6 14l-110 481h-217l196 -753h-147v-138h176v-137h-176z" />
<glyph unicode="&#xa8;" horiz-adv-x="1024" d="M272 1505v-200h191v200h-191zM561 1505v-200h191v200h-191z" />
<glyph unicode="&#xa9;" horiz-adv-x="1644" d="M53 752q0 -155 60 -296t166 -247t246 -165.5t296 -59.5q157 0 298 59.5t247 165.5t165.5 246.5t59.5 296.5q0 157 -59.5 297.5t-165.5 246.5t-247 166t-298 60q-155 0 -295.5 -60t-246.5 -166q-107 -107 -166.5 -247t-59.5 -297zM172 752q0 131 51 250t142 210t208 141 t248 50q132 0 251 -50t210 -141t141 -209.5t50 -250.5q0 -131 -50 -248.5t-141 -208.5t-210.5 -142t-250.5 -51t-248 51t-208 142t-142 208.5t-51 248.5zM1008 612h-138v-125q3 -16 -4 -32q-12 -31 -45 -31q-18 0 -28 10q-21 18 -21 53v531q0 16 6 31q12 32 43 32 q21 0 31 -10q21 -21 18 -53v-125h138v125q-3 52 -25 98q-50 98 -164 98q-71 0 -112 -30q-80 -64 -80 -166v-531q0 -52 22 -98q50 -98 170 -98q70 0 109 31q71 60 80 165v125z" />
<glyph unicode="&#xad;" horiz-adv-x="444" d="M74 649v-194h297v194h-297z" />
<glyph unicode="&#xae;" horiz-adv-x="1644" d="M53 752q0 -155 60 -296t166 -247t246 -165.5t296 -59.5q157 0 298 59.5t247 165.5t165.5 246.5t59.5 296.5q0 157 -59.5 297.5t-165.5 246.5t-247 166t-298 60q-155 0 -295.5 -60t-246.5 -166q-107 -107 -166.5 -247t-59.5 -297zM172 752q0 131 51 250t142 210t208 141 t248 50q132 0 251 -50t210 -141t141 -209.5t50 -250.5q0 -131 -50 -248.5t-141 -208.5t-210.5 -142t-250.5 -51t-248 51t-208 142t-142 208.5t-51 248.5zM821 1192h-196v-879h145v365h55l95 -365h151l-106 400q56 47 72 95t16 126q0 258 -232 258zM770 1063h45q63 0 84 -43 q14 -29 14 -88q0 -57 -14 -86q-20 -41 -84 -41h-45v258z" />
<glyph unicode="&#xb4;" horiz-adv-x="1024" d="M731 1489h-215l-106 -184h159z" />
<glyph unicode="&#xb8;" horiz-adv-x="1024" d="M598 -252v141h-172v-141h63l-40 -133h104z" />
<glyph unicode="&#xbf;" horiz-adv-x="645" d="M446 893v227h-215v-227h215zM434 715h-190v-256q0 -53 -13 -107q-23 -97 -69 -172q-8 -15 -23 -38.5t-18 -28.5q-29 -50 -41.5 -73.5t-25.5 -65t-13 -80.5q0 -93 47 -170q69 -114 219 -117q125 -3 219 102q58 65 95 152l-179 84q-12 -46 -43 -88q-40 -58 -88 -58 q-41 0 -57 39q-14 28 -10 56q9 41 53 112q64 105 92 182q45 133 45 271v256z" />
<glyph unicode="&#xc0;" horiz-adv-x="765" d="M356 1823h-215l162 -185h160zM20 0h216l40 307h213l41 -307h215l-227 1505h-270zM395 1016l64 -475h-152l64 475l6 39h12z" />
<glyph unicode="&#xc1;" horiz-adv-x="765" d="M614 1823h-215l-106 -185h160zM20 0h216l40 307h213l41 -307h215l-227 1505h-270zM395 1016l64 -475h-152l64 475l6 39h12z" />
<glyph unicode="&#xc2;" horiz-adv-x="765" d="M494 1823h-220l-141 -185h189l61 72l63 -72h189zM20 0h216l40 307h213l41 -307h215l-227 1505h-270zM395 1016l64 -475h-152l64 475l6 39h12z" />
<glyph unicode="&#xc3;" horiz-adv-x="765" d="M184 1784v-152q5 3 33 17q46 16 76 16q51 -3 92 -20q43 -19 88 -19q23 0 41 6q42 10 68 33v152q-5 -3 -33 -17q-46 -16 -76 -16q-44 3 -90 22q-49 17 -90 17q-23 0 -41 -6q-43 -14 -68 -33zM20 0h216l40 307h213l41 -307h215l-227 1505h-270zM395 1016l64 -475h-152 l64 475l6 39h12z" />
<glyph unicode="&#xc4;" horiz-adv-x="765" d="M143 1839v-201h191v201h-191zM432 1839v-201h191v201h-191zM20 0h216l40 307h213l41 -307h215l-227 1505h-270zM395 1016l64 -475h-152l64 475l6 39h12z" />
<glyph unicode="&#xc5;" horiz-adv-x="765" d="M231 1761q0 -62 45 -102.5t109 -40.5t108 40.5t44 102.5t-44 103t-108 41t-109 -41t-45 -103zM309 1761q0 29 23 50.5t53 21.5t53 -21.5t23 -50.5t-23 -50t-53 -21t-53 21t-23 50zM20 0h216l40 307h213l41 -307h215l-227 1505h-270zM395 1016l64 -475h-152l64 475l6 39 h12z" />
<glyph unicode="&#xc6;" horiz-adv-x="1099" d="M553 307v-307h506v227h-285v414h205v242h-205v395h285v227h-623l-420 -1505h220l90 307h227zM393 541l150 514h10v-514h-160z" />
<glyph unicode="&#xc7;" horiz-adv-x="708" d="M657 516h-206v-207q0 -34 -9 -55q-18 -55 -75 -55q-27 0 -43 16q-32 37 -35 94v887q4 39 10 55q21 56 68 56q34 0 51 -17q33 -36 33 -94v-207h206v207q-3 95 -36 162q-29 67 -89 112q-69 52 -170 52q-103 0 -172 -52q-55 -42 -86 -112q-33 -67 -36 -162v-887 q3 -97 36 -164q30 -67 86 -110q63 -51 172 -51q107 0 170 51q61 46 89 110q33 67 36 164v207zM440 -252v141h-172v-141h64l-41 -133h104z" />
<glyph unicode="&#xc8;" horiz-adv-x="628" d="M326 1823h-215l161 -185h160zM82 1505v-1505h506v227h-285v414h205v242h-205v395h285v227h-506z" />
<glyph unicode="&#xc9;" horiz-adv-x="628" d="M557 1823h-215l-106 -185h159zM82 1505v-1505h506v227h-285v414h205v242h-205v395h285v227h-506z" />
<glyph unicode="&#xca;" horiz-adv-x="628" d="M444 1823h-219l-141 -185h188l62 72l63 -72h189zM82 1505v-1505h506v227h-285v414h205v242h-205v395h285v227h-506z" />
<glyph unicode="&#xcb;" horiz-adv-x="628" d="M94 1839v-201h191v201h-191zM383 1839v-201h190v201h-190zM82 1505v-1505h506v227h-285v414h205v242h-205v395h285v227h-506z" />
<glyph unicode="&#xcc;" horiz-adv-x="401" d="M209 1823h-215l162 -185h159zM98 1505v-1505h221v1505h-221z" />
<glyph unicode="&#xcd;" horiz-adv-x="401" d="M408 1823h-215l-107 -185h160zM82 1505v-1505h221v1505h-221z" />
<glyph unicode="&#xce;" horiz-adv-x="370" d="M295 1823h-219l-142 -185h189l61 72l64 -72h188zM74 1505v-1505h221v1505h-221z" />
<glyph unicode="&#xcf;" horiz-adv-x="372" d="M-53 1839v-201h190v201h-190zM236 1839v-201h190v201h-190zM76 1505v-1505h221v1505h-221z" />
<glyph unicode="&#xd0;" horiz-adv-x="761" d="M20 883v-228h62v-655h174q156 0 243.5 35.5t131.5 120.5q40 80 52.5 215t12.5 381q0 247 -12.5 382.5t-52.5 215.5q-44 85 -131 120t-244 35h-174v-622h-62zM303 883v401q63 0 94 -15t47 -65q18 -68 21 -160q2 -72 2 -290q0 -219 -2 -291q-3 -96 -21 -160 q-16 -52 -47 -67t-94 -15v434h84v228h-84z" />
<glyph unicode="&#xd1;" horiz-adv-x="808" d="M207 1784v-152q5 3 33 17q46 16 75 16q52 -3 93 -20q43 -19 88 -19q23 0 41 6q41 10 67 33v152q-5 -3 -33 -17q-46 -16 -75 -16q-44 3 -90 22q-49 17 -91 17q-23 0 -41 -6q-42 -13 -67 -33zM315 784l215 -784h197v1505h-203v-854h-12l-18 70l-215 784h-197v-1505h203v854 h12z" />
<glyph unicode="&#xd2;" horiz-adv-x="724" d="M336 1823h-215l162 -185h159zM657 309v887q-3 95 -36 162q-29 67 -89 112q-69 52 -170 52q-103 0 -172 -52q-55 -42 -86 -112q-33 -67 -36 -162v-887q3 -97 36 -164q30 -67 86 -110q63 -51 172 -51q107 0 170 51q61 46 89 110q33 67 36 164zM436 1196v-887q0 -36 -8 -55 q-14 -55 -66 -55q-27 0 -43 16q-30 35 -30 94v887q0 34 8 55q17 56 65 56q29 0 46 -17q28 -35 28 -94z" />
<glyph unicode="&#xd3;" horiz-adv-x="724" d="M606 1823h-215l-106 -185h159zM657 309v887q-3 95 -36 162q-29 67 -89 112q-69 52 -170 52q-103 0 -172 -52q-55 -42 -86 -112q-33 -67 -36 -162v-887q3 -97 36 -164q30 -67 86 -110q63 -51 172 -51q107 0 170 51q61 46 89 110q33 67 36 164zM436 1196v-887q0 -36 -8 -55 q-14 -55 -66 -55q-27 0 -43 16q-30 35 -30 94v887q0 34 8 55q17 56 65 56q29 0 46 -17q28 -35 28 -94z" />
<glyph unicode="&#xd4;" horiz-adv-x="724" d="M473 1823h-219l-141 -185h188l61 72l64 -72h188zM657 309v887q-3 95 -36 162q-29 67 -89 112q-69 52 -170 52q-103 0 -172 -52q-55 -42 -86 -112q-33 -67 -36 -162v-887q3 -97 36 -164q30 -67 86 -110q63 -51 172 -51q107 0 170 51q61 46 89 110q33 67 36 164zM436 1196 v-887q0 -36 -8 -55q-14 -55 -66 -55q-27 0 -43 16q-30 35 -30 94v887q0 34 8 55q17 56 65 56q29 0 46 -17q28 -35 28 -94z" />
<glyph unicode="&#xd5;" horiz-adv-x="724" d="M164 1784v-152q5 3 33 17q46 16 75 16q52 -3 93 -20q43 -19 88 -19q23 0 41 6q41 10 67 33v152q-5 -3 -33 -17q-46 -16 -75 -16q-45 3 -91 22q-49 17 -90 17q-23 0 -41 -6q-42 -13 -67 -33zM657 309v887q-3 95 -36 162q-29 67 -89 112q-69 52 -170 52q-103 0 -172 -52 q-55 -42 -86 -112q-33 -67 -36 -162v-887q3 -97 36 -164q30 -67 86 -110q63 -51 172 -51q107 0 170 51q61 46 89 110q33 67 36 164zM436 1196v-887q0 -36 -8 -55q-14 -55 -66 -55q-27 0 -43 16q-30 35 -30 94v887q0 34 8 55q17 56 65 56q29 0 46 -17q28 -35 28 -94z" />
<glyph unicode="&#xd6;" horiz-adv-x="724" d="M123 1839v-201h190v201h-190zM412 1839v-201h190v201h-190zM657 309v887q-3 95 -36 162q-29 67 -89 112q-69 52 -170 52q-103 0 -172 -52q-55 -42 -86 -112q-33 -67 -36 -162v-887q3 -97 36 -164q30 -67 86 -110q63 -51 172 -51q107 0 170 51q61 46 89 110q33 67 36 164z M436 1196v-887q0 -36 -8 -55q-14 -55 -66 -55q-27 0 -43 16q-30 35 -30 94v887q0 34 8 55q17 56 65 56q29 0 46 -17q28 -35 28 -94z" />
<glyph unicode="&#xd8;" horiz-adv-x="724" d="M59 -20h129l15 47q62 -43 159 -43q107 0 170 51q61 46 89 110q33 67 36 164v887q0 27 -6 57q-13 74 -39 123l45 150h-122l-15 -47q-65 43 -158 43q-103 0 -172 -52q-55 -42 -86 -112q-33 -67 -36 -162v-887q0 -19 4 -55q15 -83 34 -117zM289 727v469q0 34 8 55 q17 56 65 56q44 0 62 -41q12 -38 12 -60zM436 797v-488q0 -36 -8 -55q-14 -55 -66 -55q-27 0 -43 16q-30 35 -30 94z" />
<glyph unicode="&#xd9;" horiz-adv-x="749" d="M360 1823h-215l162 -185h160zM670 1505h-221v-1196q0 -34 -9 -55q-14 -55 -65 -55q-27 0 -43 16q-31 36 -31 94v1196h-221v-1196q3 -95 37 -164q30 -67 86 -110q63 -51 172 -51q107 0 170 51q59 45 88 110q34 69 37 164v1196z" />
<glyph unicode="&#xda;" horiz-adv-x="749" d="M629 1823h-215l-107 -185h160zM670 1505h-221v-1196q0 -34 -9 -55q-14 -55 -65 -55q-27 0 -43 16q-31 36 -31 94v1196h-221v-1196q3 -95 37 -164q30 -67 86 -110q63 -51 172 -51q107 0 170 51q59 45 88 110q34 69 37 164v1196z" />
<glyph unicode="&#xdb;" horiz-adv-x="749" d="M485 1823h-219l-141 -185h188l62 72l63 -72h189zM670 1505h-221v-1196q0 -34 -9 -55q-14 -55 -65 -55q-27 0 -43 16q-31 36 -31 94v1196h-221v-1196q3 -95 37 -164q30 -67 86 -110q63 -51 172 -51q107 0 170 51q59 45 88 110q34 69 37 164v1196z" />
<glyph unicode="&#xdc;" horiz-adv-x="749" d="M135 1839v-201h191v201h-191zM424 1839v-201h190v201h-190zM670 1505h-221v-1196q0 -34 -9 -55q-14 -55 -65 -55q-27 0 -43 16q-31 36 -31 94v1196h-221v-1196q3 -95 37 -164q30 -67 86 -110q63 -51 172 -51q107 0 170 51q59 45 88 110q34 69 37 164v1196z" />
<glyph unicode="&#xdd;" horiz-adv-x="704" d="M575 1823h-215l-106 -185h160zM344 1024l-111 481h-217l226 -864v-641h221v641l225 864h-217l-111 -481l-6 -14h-4z" />
<glyph unicode="&#xde;" horiz-adv-x="724" d="M82 1505v-1505h221v360q161 0 266 99q123 116 123 354q0 240 -123 356q-100 95 -266 95h-2v241h-219zM303 586v452q99 0 135 -53q31 -46 31 -180q0 -131 -31 -172q-34 -47 -135 -47z" />
<glyph unicode="&#xdf;" horiz-adv-x="733" d="M346 1120v-141q71 0 96 -72q31 -88 31 -332q0 -230 -31 -315q-24 -67 -96 -67v-193q88 0 148 21.5t100 78.5q86 124 86 475q0 220 -41 338q-37 108 -111 150q88 66 88 174q0 124 -65 201q-71 84 -205 84t-213 -86q-67 -73 -67 -201v-1235h206v1235q0 44 19 73t55 29 q42 0 64 -28t22 -72q0 -53 -25 -85t-61 -32z" />
<glyph unicode="&#xe0;" horiz-adv-x="681" d="M317 1489h-215l162 -184h160zM395 854v-123q-2 -5 -5 -9.5t-9 -9.5t-11.5 -8.5t-15.5 -9t-16.5 -9t-20 -10.5t-20.5 -11q-104 -55 -162 -127q-86 -107 -86 -277q0 -154 64 -225q41 -51 102 -51q60 0 109 39q35 28 57 67h14q0 -66 19 -90h202q-14 86 -14 195v688 q0 109 -76 182q-75 72 -176 72q-120 0 -198 -88q-80 -90 -80 -211v-47h207v53q0 21 4 53q11 59 55 59q37 0 51 -34q6 -20 6 -68zM395 541v-287q0 -29 -25 -48.5t-61 -19.5q-33 0 -47 43q-10 29 -10 62q0 84 35.5 151.5t107.5 98.5z" />
<glyph unicode="&#xe1;" horiz-adv-x="681" d="M586 1489h-215l-107 -184h160zM395 854v-123q-2 -5 -5 -9.5t-9 -9.5t-11.5 -8.5t-15.5 -9t-16.5 -9t-20 -10.5t-20.5 -11q-104 -55 -162 -127q-86 -107 -86 -277q0 -154 64 -225q41 -51 102 -51q60 0 109 39q35 28 57 67h14q0 -66 19 -90h202q-14 86 -14 195v688 q0 109 -76 182q-75 72 -176 72q-120 0 -198 -88q-80 -90 -80 -211v-47h207v53q0 21 4 53q11 59 55 59q37 0 51 -34q6 -20 6 -68zM395 541v-287q0 -29 -25 -48.5t-61 -19.5q-33 0 -47 43q-10 29 -10 62q0 84 35.5 151.5t107.5 98.5z" />
<glyph unicode="&#xe2;" horiz-adv-x="681" d="M451 1489h-220l-141 -184h189l61 71l63 -71h189zM395 854v-123q-2 -5 -5 -9.5t-9 -9.5t-11.5 -8.5t-15.5 -9t-16.5 -9t-20 -10.5t-20.5 -11q-104 -55 -162 -127q-86 -107 -86 -277q0 -154 64 -225q41 -51 102 -51q60 0 109 39q35 28 57 67h14q0 -66 19 -90h202 q-14 86 -14 195v688q0 109 -76 182q-75 72 -176 72q-120 0 -198 -88q-80 -90 -80 -211v-47h207v53q0 21 4 53q11 59 55 59q37 0 51 -34q6 -20 6 -68zM395 541v-287q0 -29 -25 -48.5t-61 -19.5q-33 0 -47 43q-10 29 -10 62q0 84 35.5 151.5t107.5 98.5z" />
<glyph unicode="&#xe3;" horiz-adv-x="681" d="M143 1456v-151q6 3 17.5 8.5t15.5 7.5q46 16 76 16q51 -3 92 -20q43 -19 88 -19q20 0 41 7q44 11 68 32v152q-6 -3 -18 -8.5t-15 -7.5q-49 -17 -76 -17q-41 3 -90 23q-46 16 -90 16q-23 0 -41 -6q-43 -14 -68 -33zM395 854v-123q-2 -5 -5 -9.5t-9 -9.5t-11.5 -8.5 t-15.5 -9t-16.5 -9t-20 -10.5t-20.5 -11q-104 -55 -162 -127q-86 -107 -86 -277q0 -154 64 -225q41 -51 102 -51q60 0 109 39q35 28 57 67h14q0 -66 19 -90h202q-14 86 -14 195v688q0 109 -76 182q-75 72 -176 72q-120 0 -198 -88q-80 -90 -80 -211v-47h207v53q0 21 4 53 q11 59 55 59q37 0 51 -34q6 -20 6 -68zM395 541v-287q0 -29 -25 -48.5t-61 -19.5q-33 0 -47 43q-10 29 -10 62q0 84 35.5 151.5t107.5 98.5z" />
<glyph unicode="&#xe4;" horiz-adv-x="681" d="M102 1505v-200h191v200h-191zM391 1505v-200h191v200h-191zM395 854v-123q-2 -5 -5 -9.5t-9 -9.5t-11.5 -8.5t-15.5 -9t-16.5 -9t-20 -10.5t-20.5 -11q-104 -55 -162 -127q-86 -107 -86 -277q0 -154 64 -225q41 -51 102 -51q60 0 109 39q35 28 57 67h14q0 -66 19 -90h202 q-14 86 -14 195v688q0 109 -76 182q-75 72 -176 72q-120 0 -198 -88q-80 -90 -80 -211v-47h207v53q0 21 4 53q11 59 55 59q37 0 51 -34q6 -20 6 -68zM395 541v-287q0 -29 -25 -48.5t-61 -19.5q-33 0 -47 43q-10 29 -10 62q0 84 35.5 151.5t107.5 98.5z" />
<glyph unicode="&#xe5;" horiz-adv-x="681" d="M188 1421q0 -62 45 -102.5t109 -40.5t108 40.5t44 102.5t-44 103t-108 41t-109 -41t-45 -103zM266 1421q0 29 23 50.5t53 21.5t53 -21.5t23 -50.5t-23 -50t-53 -21t-53 21t-23 50zM395 854v-123q-2 -5 -5 -9.5t-9 -9.5t-11.5 -8.5t-15.5 -9t-16.5 -9t-20 -10.5t-20.5 -11 q-104 -55 -162 -127q-86 -107 -86 -277q0 -154 64 -225q41 -51 102 -51q60 0 109 39q35 28 57 67h14q0 -66 19 -90h202q-14 86 -14 195v688q0 109 -76 182q-75 72 -176 72q-120 0 -198 -88q-80 -90 -80 -211v-47h207v53q0 21 4 53q11 59 55 59q37 0 51 -34q6 -20 6 -68z M395 541v-287q0 -29 -25 -48.5t-61 -19.5q-33 0 -47 43q-10 29 -10 62q0 84 35.5 151.5t107.5 98.5z" />
<glyph unicode="&#xe6;" horiz-adv-x="989" d="M930 401h-193v-122q0 -37 -8 -58q-14 -55 -65 -55q-27 0 -43 16q-30 39 -33 97v243h342v326q-3 71 -33 143q-67 146 -233 146q-97 0 -162 -52q-67 52 -152 52q-120 0 -198 -88q-80 -90 -80 -211v-47h207v53q0 21 4 53q11 59 55 59q37 0 51 -34q6 -20 6 -68v-123 q-2 -5 -5 -9.5t-9 -9.5t-11.5 -8.5t-15.5 -9t-16.5 -9t-20 -10.5t-20.5 -11q-104 -55 -162 -127q-86 -107 -86 -277q0 -154 64 -225q41 -51 102 -51q120 0 221 131q67 -131 226 -131q101 0 155 45q55 44 81.5 102t31.5 141v129zM588 684v158q3 39 10 57q18 57 66 57 q29 0 45 -16q28 -35 28 -98v-158h-149zM395 541v-287q0 -29 -25 -48.5t-61 -19.5q-33 0 -47 43q-10 29 -10 62q0 84 35.5 151.5t107.5 98.5z" />
<glyph unicode="&#xe7;" horiz-adv-x="645" d="M272 258v604q0 26 2.5 42.5t16 32t39.5 15.5q35 0 47 -19t12 -71v-135h207v88q0 180 -68 254q-62 68 -198 68q-123 0 -189 -72q-75 -81 -75 -260v-490q0 -179 75 -260q65 -71 189 -71q136 0 198 67q68 74 68 254v109h-207v-156q0 -52 -12 -71t-47 -19q-26 0 -39.5 15.5 t-16 32t-2.5 42.5zM410 -252v141h-172v-141h63l-41 -133h105z" />
<glyph unicode="&#xe8;" horiz-adv-x="659" d="M317 1489h-215l162 -184h160zM600 401h-192v-122q0 -34 -9 -58q-14 -55 -65 -55q-27 0 -43 16q-30 39 -33 97v243h342v326q-3 71 -33 143q-67 146 -233 146q-103 0 -154 -45q-105 -87 -114 -250v-563q3 -78 32 -148q66 -147 234 -147q101 0 155 45q55 44 81.5 102 t31.5 141v129zM258 684v158q3 39 10 57q18 57 66 57q29 0 45 -16q29 -36 29 -98v-158h-150z" />
<glyph unicode="&#xe9;" horiz-adv-x="659" d="M586 1489h-215l-107 -184h160zM600 401h-192v-122q0 -34 -9 -58q-14 -55 -65 -55q-27 0 -43 16q-30 39 -33 97v243h342v326q-3 71 -33 143q-67 146 -233 146q-103 0 -154 -45q-105 -87 -114 -250v-563q3 -78 32 -148q66 -147 234 -147q101 0 155 45q55 44 81.5 102 t31.5 141v129zM258 684v158q3 39 10 57q18 57 66 57q29 0 45 -16q29 -36 29 -98v-158h-150z" />
<glyph unicode="&#xea;" horiz-adv-x="659" d="M440 1489h-219l-141 -184h188l62 71l63 -71h189zM600 401h-192v-122q0 -34 -9 -58q-14 -55 -65 -55q-27 0 -43 16q-30 39 -33 97v243h342v326q-3 71 -33 143q-67 146 -233 146q-103 0 -154 -45q-105 -87 -114 -250v-563q3 -78 32 -148q66 -147 234 -147q101 0 155 45 q55 44 81.5 102t31.5 141v129zM258 684v158q3 39 10 57q18 57 66 57q29 0 45 -16q29 -36 29 -98v-158h-150z" />
<glyph unicode="&#xeb;" horiz-adv-x="659" d="M90 1505v-200h191v200h-191zM379 1505v-200h190v200h-190zM600 401h-192v-122q0 -34 -9 -58q-14 -55 -65 -55q-27 0 -43 16q-30 39 -33 97v243h342v326q-3 71 -33 143q-67 146 -233 146q-103 0 -154 -45q-105 -87 -114 -250v-563q3 -78 32 -148q66 -147 234 -147 q101 0 155 45q55 44 81.5 102t31.5 141v129zM258 684v158q3 39 10 57q18 57 66 57q29 0 45 -16q29 -36 29 -98v-158h-150z" />
<glyph unicode="&#xec;" horiz-adv-x="370" d="M182 1489h-215l162 -184h160zM82 0h207v1120h-207v-1120z" />
<glyph unicode="&#xed;" horiz-adv-x="370" d="M403 1489h-215l-106 -184h160zM82 0h207v1120h-207v-1120z" />
<glyph unicode="&#xee;" horiz-adv-x="370" d="M295 1489h-219l-142 -184h189l61 71l64 -71h188zM82 0h207v1120h-207v-1120z" />
<glyph unicode="&#xef;" horiz-adv-x="372" d="M-53 1505v-200h190v200h-190zM236 1505v-200h190v200h-190zM82 0h207v1120h-207v-1120z" />
<glyph unicode="&#xf0;" horiz-adv-x="673" d="M379 1507l-109 -100q2 -5 13 -16q7 -8 32 -50l-100 -88l55 -63l82 72q36 -81 51 -203q-91 78 -155 78q-113 0 -152 -123q-20 -66 -20 -156v-579q3 -76 33 -148q66 -147 231 -147q102 0 156 45q53 44 79 102t31 141v656q0 252 -125 446l101 88l-56 66l-94 -82l-18 24 l-19 19q-3 3 -8 9t-8 9zM412 842v-563q3 -34 -6 -58q-14 -55 -66 -55q-27 0 -43 16q-30 38 -27 97v563q-3 33 6 57q15 57 64 57q29 0 45 -16q30 -37 27 -98z" />
<glyph unicode="&#xf1;" d="M147 1456v-151q6 3 18 8.5t15 7.5q46 16 76 16q51 -3 92 -20q43 -19 88 -19q20 0 41 7q44 11 68 32v152q-6 -3 -18 -8.5t-15 -7.5q-49 -17 -76 -17q-41 3 -90 23q-46 16 -90 16q-23 0 -41 -6q-43 -14 -68 -33zM289 0v883q6 10 18 26q27 27 49 27q50 0 50 -49v-887h206 v918q0 81 -37 145q-45 74 -118 74q-27 0 -54 -15q-37 -20 -90 -73q-22 -22 -24 -23v94h-207v-1120h207z" />
<glyph unicode="&#xf2;" horiz-adv-x="657" d="M313 1489h-215l162 -184h160zM594 272v576q-3 71 -33 143q-67 146 -233 146q-103 0 -154 -45q-102 -86 -111 -250v-563q3 -76 33 -148q66 -147 232 -147q101 0 155 45q54 44 80 102.5t31 140.5zM399 842v-563q3 -34 -6 -58q-14 -55 -65 -55q-27 0 -43 16q-30 38 -27 97 v563q-3 33 6 57q15 57 64 57q29 0 45 -16q29 -36 26 -98z" />
<glyph unicode="&#xf3;" horiz-adv-x="657" d="M582 1489h-215l-107 -184h160zM594 272v576q-3 71 -33 143q-67 146 -233 146q-103 0 -154 -45q-102 -86 -111 -250v-563q3 -76 33 -148q66 -147 232 -147q101 0 155 45q54 44 80 102.5t31 140.5zM399 842v-563q3 -34 -6 -58q-14 -55 -65 -55q-27 0 -43 16q-30 38 -27 97 v563q-3 33 6 57q15 57 64 57q29 0 45 -16q29 -36 26 -98z" />
<glyph unicode="&#xf4;" horiz-adv-x="657" d="M438 1489h-219l-141 -184h188l62 71l63 -71h189zM594 272v576q-3 71 -33 143q-67 146 -233 146q-103 0 -154 -45q-102 -86 -111 -250v-563q3 -76 33 -148q66 -147 232 -147q101 0 155 45q54 44 80 102.5t31 140.5zM399 842v-563q3 -34 -6 -58q-14 -55 -65 -55 q-27 0 -43 16q-30 38 -27 97v563q-3 33 6 57q15 57 64 57q29 0 45 -16q29 -36 26 -98z" />
<glyph unicode="&#xf5;" horiz-adv-x="657" d="M131 1456v-151q6 3 17.5 8.5t15.5 7.5q46 16 76 16q51 -3 92 -20q43 -19 88 -19q20 0 41 7q42 10 67 32v152l-32 -16q-49 -17 -76 -17q-41 3 -90 23q-46 16 -90 16q-23 0 -41 -6q-43 -14 -68 -33zM594 272v576q-3 71 -33 143q-67 146 -233 146q-103 0 -154 -45 q-102 -86 -111 -250v-563q3 -76 33 -148q66 -147 232 -147q101 0 155 45q54 44 80 102.5t31 140.5zM399 842v-563q3 -34 -6 -58q-14 -55 -65 -55q-27 0 -43 16q-30 38 -27 97v563q-3 33 6 57q15 57 64 57q29 0 45 -16q29 -36 26 -98z" />
<glyph unicode="&#xf6;" horiz-adv-x="657" d="M90 1505v-200h191v200h-191zM379 1505v-200h190v200h-190zM594 272v576q-3 71 -33 143q-67 146 -233 146q-103 0 -154 -45q-102 -86 -111 -250v-563q3 -76 33 -148q66 -147 232 -147q101 0 155 45q54 44 80 102.5t31 140.5zM399 842v-563q3 -34 -6 -58q-14 -55 -65 -55 q-27 0 -43 16q-30 38 -27 97v563q-3 33 6 57q15 57 64 57q29 0 45 -16q29 -36 26 -98z" />
<glyph unicode="&#xf8;" horiz-adv-x="657" d="M125 -78h80l20 78q50 -16 103 -16q101 0 155 45q54 44 80 102.5t31 140.5v576q-3 44 -12 84q-29 96 -82 145l30 121h-75l-21 -80q-59 19 -106 19q-103 0 -154 -45q-102 -86 -111 -250v-563q0 -37 11 -86q19 -92 82 -150zM258 436v406q-3 33 6 57q15 57 64 57q40 0 55 -34 zM399 682v-403q3 -34 -6 -58q-14 -55 -65 -55q-38 0 -54 31z" />
<glyph unicode="&#xf9;" d="M328 1489h-215l161 -184h160zM401 1120v-882q-13 -22 -18 -27q-27 -27 -49 -27q-23 0 -36 10t-13 39v887h-207v-917q0 -83 37 -144q44 -75 118 -75q27 0 56 16q35 19 90 74q18 18 22 20v-94h207v1120h-207z" />
<glyph unicode="&#xfa;" d="M596 1489h-215l-107 -184h160zM401 1120v-882q-13 -22 -18 -27q-27 -27 -49 -27q-23 0 -36 10t-13 39v887h-207v-917q0 -83 37 -144q44 -75 118 -75q27 0 56 16q35 19 90 74q18 18 22 20v-94h207v1120h-207z" />
<glyph unicode="&#xfb;" d="M455 1489h-219l-142 -184h189l61 71l64 -71h188zM401 1120v-882q-13 -22 -18 -27q-27 -27 -49 -27q-23 0 -36 10t-13 39v887h-207v-917q0 -83 37 -144q44 -75 118 -75q27 0 56 16q35 19 90 74q18 18 22 20v-94h207v1120h-207z" />
<glyph unicode="&#xfc;" d="M106 1505v-200h191v200h-191zM395 1505v-200h191v200h-191zM401 1120v-882q-13 -22 -18 -27q-27 -27 -49 -27q-23 0 -36 10t-13 39v887h-207v-917q0 -83 37 -144q44 -75 118 -75q27 0 56 16q35 19 90 74q18 18 22 20v-94h207v1120h-207z" />
<glyph unicode="&#xfd;" horiz-adv-x="634" d="M553 1489h-215l-107 -184h160zM33 -213v-184q50 -4 67 -4h25q114 0 197 100q74 89 90 217l198 1204h-202l-82 -688l-4 -57h-9l-4 57l-82 688h-202l190 -1153q0 -34 -8 -61q-18 -65 -68 -103q-21 -16 -55.5 -19t-38.5 1q-10 0 -12 2z" />
<glyph unicode="&#xfe;" horiz-adv-x="686" d="M82 1505v-1890h207v459q34 -30 53 -45q61 -45 111 -45q75 0 122 75q37 61 37 144v715q0 81 -37 145q-49 74 -122 74q-31 0 -58 -15q-50 -22 -106 -75v458h-207zM289 246v628q0 29 18.5 48.5t42.5 19.5q23 0 39.5 -19.5t16.5 -48.5v-628q0 -29 -16.5 -48.5t-39.5 -19.5 t-42 21.5t-19 46.5z" />
<glyph unicode="&#xff;" horiz-adv-x="634" d="M78 1505v-200h190v200h-190zM367 1505v-200h190v200h-190zM33 -213v-184q50 -4 67 -4h25q114 0 197 100q74 89 90 217l198 1204h-202l-82 -688l-4 -57h-9l-4 57l-82 688h-202l190 -1153q0 -34 -8 -61q-18 -65 -68 -103q-21 -16 -55.5 -19t-38.5 1q-10 0 -12 2z" />
<glyph unicode="&#x100;" horiz-adv-x="765" d="M186 1862v-162h398v162h-398zM20 0h216l40 307h213l41 -307h215l-227 1505h-270zM395 1016l64 -475h-152l64 475l6 39h12z" />
<glyph unicode="&#x101;" horiz-adv-x="681" d="M145 1477v-162h398v162h-398zM395 854v-123q-2 -5 -5 -9.5t-9 -9.5t-11.5 -8.5t-15.5 -9t-16.5 -9t-20 -10.5t-20.5 -11q-104 -55 -162 -127q-86 -107 -86 -277q0 -154 64 -225q41 -51 102 -51q60 0 109 39q35 28 57 67h14q0 -66 19 -90h202q-14 86 -14 195v688 q0 109 -76 182q-75 72 -176 72q-120 0 -198 -88q-80 -90 -80 -211v-47h207v53q0 21 4 53q11 59 55 59q37 0 51 -34q6 -20 6 -68zM395 541v-287q0 -29 -25 -48.5t-61 -19.5q-33 0 -47 43q-10 29 -10 62q0 84 35.5 151.5t107.5 98.5z" />
<glyph unicode="&#x102;" horiz-adv-x="765" d="M610 1784l-106 94q-13 -16 -31 -25q-36 -22 -88 -22q-28 0 -49 6q-43 12 -66 41l-110 -94q25 -29 59 -49q73 -47 166 -47q56 0 94 14q73 24 131 82zM20 0h216l40 307h213l41 -307h215l-227 1505h-270zM395 1016l64 -475h-152l64 475l6 39h12z" />
<glyph unicode="&#x103;" horiz-adv-x="681" d="M569 1399l-106 94q-13 -16 -31 -25q-36 -22 -88 -22q-28 0 -49 6q-43 12 -66 41l-110 -94q25 -29 59 -49q73 -47 166 -47q56 0 94 14q73 24 131 82zM395 854v-123q-2 -5 -5 -9.5t-9 -9.5t-11.5 -8.5t-15.5 -9t-16.5 -9t-20 -10.5t-20.5 -11q-104 -55 -162 -127 q-86 -107 -86 -277q0 -154 64 -225q41 -51 102 -51q60 0 109 39q35 28 57 67h14q0 -66 19 -90h202q-14 86 -14 195v688q0 109 -76 182q-75 72 -176 72q-120 0 -198 -88q-80 -90 -80 -211v-47h207v53q0 21 4 53q11 59 55 59q37 0 51 -34q6 -20 6 -68zM395 541v-287 q0 -29 -25 -48.5t-61 -19.5q-33 0 -47 43q-10 29 -10 62q0 84 35.5 151.5t107.5 98.5z" />
<glyph unicode="&#x104;" horiz-adv-x="765" d="M745 0h-96q-54 -48 -78 -102q-14 -28 -14 -68q0 -41 30.5 -59.5t71.5 -18.5q39 0 86 19l-16 -138q-55 -18 -104 -18q-96 0 -152.5 51t-56.5 123q0 73 67 148q29 37 68 63h-21l-41 307h-213l-40 -307h-216l228 1505h270zM307 541h152l-64 475l-6 39h-12l-6 -39z" />
<glyph unicode="&#x105;" horiz-adv-x="681" d="M616 0h-94q-54 -48 -78 -102q-14 -28 -14 -68q0 -41 30.5 -59.5t71.5 -18.5q38 0 86 19l-16 -138q-55 -18 -104 -18q-96 0 -152.5 51t-56.5 123q0 73 67 148q29 37 68 63h-10q-19 24 -19 90h-14q-22 -39 -57 -67q-49 -39 -109 -39q-61 0 -102 51q-64 71 -64 225 q0 170 86 277q58 72 162 127q7 4 20.5 11t20 10.5t16.5 9t15.5 9t11.5 8.5t9 9.5t5 9.5v123q0 48 -6 68q-14 34 -51 34q-44 0 -55 -59q-4 -32 -4 -53v-53h-207v47q0 121 80 211q78 88 198 88q101 0 176 -72q76 -73 76 -182v-688q0 -109 14 -195zM395 254v287 q-72 -31 -107.5 -98.5t-35.5 -151.5q0 -33 10 -62q14 -43 47 -43q36 0 61 19.5t25 48.5z" />
<glyph unicode="&#x106;" horiz-adv-x="708" d="M518 1874h-215l-106 -184h159zM657 516h-206v-207q0 -34 -9 -55q-18 -55 -75 -55q-27 0 -43 16q-32 37 -35 94v887q4 39 10 55q21 56 68 56q34 0 51 -17q33 -36 33 -94v-207h206v207q-3 95 -36 162q-29 67 -89 112q-69 52 -170 52q-103 0 -172 -52q-55 -42 -86 -112 q-33 -67 -36 -162v-887q3 -97 36 -164q30 -67 86 -110q63 -51 172 -51q107 0 170 51q61 46 89 110q33 67 36 164v207z" />
<glyph unicode="&#x107;" horiz-adv-x="645" d="M485 1489h-215l-106 -184h160zM272 258v604q0 26 2.5 42.5t16 32t39.5 15.5q35 0 47 -19t12 -71v-135h207v88q0 180 -68 254q-62 68 -198 68q-123 0 -189 -72q-75 -81 -75 -260v-490q0 -179 75 -260q65 -71 189 -71q136 0 198 67q68 74 68 254v109h-207v-156 q0 -52 -12 -71t-47 -19q-26 0 -39.5 15.5t-16 32t-2.5 42.5z" />
<glyph unicode="&#x108;" horiz-adv-x="708" d="M467 1874h-219l-142 -184h189l61 71l64 -71h188zM657 516h-206v-207q0 -34 -9 -55q-18 -55 -75 -55q-27 0 -43 16q-32 37 -35 94v887q4 39 10 55q21 56 68 56q34 0 51 -17q33 -36 33 -94v-207h206v207q-3 95 -36 162q-29 67 -89 112q-69 52 -170 52q-103 0 -172 -52 q-55 -42 -86 -112q-33 -67 -36 -162v-887q3 -97 36 -164q30 -67 86 -110q63 -51 172 -51q107 0 170 51q61 46 89 110q33 67 36 164v207z" />
<glyph unicode="&#x109;" horiz-adv-x="645" d="M434 1489h-219l-141 -184h188l62 71l63 -71h188zM272 258v604q0 26 2.5 42.5t16 32t39.5 15.5q35 0 47 -19t12 -71v-135h207v88q0 180 -68 254q-62 68 -198 68q-123 0 -189 -72q-75 -81 -75 -260v-490q0 -179 75 -260q65 -71 189 -71q136 0 198 67q68 74 68 254v109h-207 v-156q0 -52 -12 -71t-47 -19q-26 0 -39.5 15.5t-16 32t-2.5 42.5z" />
<glyph unicode="&#x10a;" horiz-adv-x="708" d="M254 1890v-207h207v207h-207zM657 516h-206v-207q0 -34 -9 -55q-18 -55 -75 -55q-27 0 -43 16q-32 37 -35 94v887q4 39 10 55q21 56 68 56q34 0 51 -17q33 -36 33 -94v-207h206v207q-3 95 -36 162q-29 67 -89 112q-69 52 -170 52q-103 0 -172 -52q-55 -42 -86 -112 q-33 -67 -36 -162v-887q3 -97 36 -164q30 -67 86 -110q63 -51 172 -51q107 0 170 51q61 46 89 110q33 67 36 164v207z" />
<glyph unicode="&#x10b;" horiz-adv-x="645" d="M221 1505v-207h207v207h-207zM272 258v604q0 26 2.5 42.5t16 32t39.5 15.5q35 0 47 -19t12 -71v-135h207v88q0 180 -68 254q-62 68 -198 68q-123 0 -189 -72q-75 -81 -75 -260v-490q0 -179 75 -260q65 -71 189 -71q136 0 198 67q68 74 68 254v109h-207v-156 q0 -52 -12 -71t-47 -19q-26 0 -39.5 15.5t-16 32t-2.5 42.5z" />
<glyph unicode="&#x10c;" horiz-adv-x="708" d="M248 1690h219l141 184h-188l-64 -72l-61 72h-189zM657 516h-206v-207q0 -34 -9 -55q-18 -55 -75 -55q-27 0 -43 16q-32 37 -35 94v887q4 39 10 55q21 56 68 56q34 0 51 -17q33 -36 33 -94v-207h206v207q-3 95 -36 162q-29 67 -89 112q-69 52 -170 52q-103 0 -172 -52 q-55 -42 -86 -112q-33 -67 -36 -162v-887q3 -97 36 -164q30 -67 86 -110q63 -51 172 -51q107 0 170 51q61 46 89 110q33 67 36 164v207z" />
<glyph unicode="&#x10d;" horiz-adv-x="645" d="M215 1305h219l141 184h-188l-63 -72l-62 72h-188zM272 258v604q0 26 2.5 42.5t16 32t39.5 15.5q35 0 47 -19t12 -71v-135h207v88q0 180 -68 254q-62 68 -198 68q-123 0 -189 -72q-75 -81 -75 -260v-490q0 -179 75 -260q65 -71 189 -71q136 0 198 67q68 74 68 254v109 h-207v-156q0 -52 -12 -71t-47 -19q-26 0 -39.5 15.5t-16 32t-2.5 42.5z" />
<glyph unicode="&#x10e;" horiz-adv-x="761" d="M274 1690h220l141 184h-189l-63 -72l-61 72h-189zM82 0h174q156 0 243.5 35.5t131.5 120.5q40 80 52.5 215t12.5 381q0 247 -12.5 382.5t-52.5 215.5q-44 85 -131 120t-244 35h-174v-1505zM303 221v1063q63 0 94 -15t47 -65q18 -68 21 -160q2 -72 2 -290q0 -219 -2 -291 q-3 -96 -21 -160q-16 -52 -47 -67t-94 -15z" />
<glyph unicode="&#x10f;" horiz-adv-x="995" d="M604 0v1505h-207v-458q-34 30 -53 45q-61 45 -111 45q-75 0 -120 -74q-39 -62 -39 -145v-715q0 -85 39 -144q44 -75 120 -75q32 0 60 14q46 21 104 76v-74h207zM946 1278v227h-215v-227h72l-72 -266h103zM397 874v-628q0 -29 -18.5 -48.5t-42.5 -19.5q-23 0 -39 19.5 t-16 48.5v628q0 29 16 48.5t39 19.5t42 -21.5t19 -46.5z" />
<glyph unicode="&#x110;" horiz-adv-x="761" d="M82 1505h174q157 0 244 -35t131 -120q40 -80 52.5 -215.5t12.5 -382.5q0 -246 -12.5 -381t-52.5 -215q-44 -85 -131.5 -120.5t-243.5 -35.5h-174v678h-121v162h121v665zM303 678v-457q63 0 94 15t47 67q18 64 21 160q2 72 2 291q0 218 -2 290q-3 92 -21 160 q-16 50 -47 65t-94 15v-444h55v-162h-55z" />
<glyph unicode="&#x111;" horiz-adv-x="686" d="M651 1417v-194h-47v-1223h-207v74q-58 -55 -104 -76q-28 -14 -60 -14q-76 0 -120 75q-39 59 -39 144v715q0 83 39 145q45 74 120 74q50 0 111 -45q19 -15 53 -45v176h-43v194h43v88h207v-88h47zM397 246v628q0 25 -19 46.5t-42 21.5t-39 -19.5t-16 -48.5v-628 q0 -29 16 -48.5t39 -19.5q24 0 42.5 19.5t18.5 48.5z" />
<glyph unicode="&#x112;" horiz-adv-x="628" d="M119 1862v-162h397v162h-397zM82 1505v-1505h506v227h-285v414h205v242h-205v395h285v227h-506z" />
<glyph unicode="&#x113;" horiz-adv-x="659" d="M133 1477v-162h397v162h-397zM600 401h-192v-122q0 -34 -9 -58q-14 -55 -65 -55q-27 0 -43 16q-30 39 -33 97v243h342v326q-3 71 -33 143q-67 146 -233 146q-103 0 -154 -45q-105 -87 -114 -250v-563q3 -78 32 -148q66 -147 234 -147q101 0 155 45q55 44 81.5 102 t31.5 141v129zM258 684v158q3 39 10 57q18 57 66 57q29 0 45 -16q29 -36 29 -98v-158h-150z" />
<glyph unicode="&#x116;" horiz-adv-x="628" d="M213 1890v-207h207v207h-207zM82 1505v-1505h506v227h-285v414h205v242h-205v395h285v227h-506z" />
<glyph unicode="&#x117;" horiz-adv-x="659" d="M229 1505v-207h207v207h-207zM600 401h-192v-122q0 -34 -9 -58q-14 -55 -65 -55q-27 0 -43 16q-30 39 -33 97v243h342v326q-3 71 -33 143q-67 146 -233 146q-103 0 -154 -45q-105 -87 -114 -250v-563q3 -78 32 -148q66 -147 234 -147q101 0 155 45q55 44 81.5 102 t31.5 141v129zM258 684v158q3 39 10 57q18 57 66 57q29 0 45 -16q29 -36 29 -98v-158h-150z" />
<glyph unicode="&#x118;" horiz-adv-x="628" d="M588 0h-94q-54 -48 -78 -102q-15 -30 -15 -68q0 -40 31 -59t72 -19q38 0 86 19l-17 -138q-55 -18 -104 -18q-96 0 -152.5 51t-56.5 123t68 148q30 38 67 63h-313v1505h506v-227h-285v-395h205v-242h-205v-414h285v-227z" />
<glyph unicode="&#x119;" horiz-adv-x="659" d="M438 0h70q-54 -48 -78 -102q-14 -28 -14 -68q0 -41 30.5 -59.5t71.5 -18.5q38 0 86 19l-16 -138q-55 -18 -105 -18q-96 0 -152.5 51t-56.5 123t68 148q22 29 51 51q-36 -4 -61 -4q-168 0 -234 147q-29 70 -32 148v563q9 163 114 250q51 45 154 45q166 0 233 -146 q30 -72 33 -143v-326h-342v-243q3 -58 33 -97q16 -16 43 -16q51 0 65 55q9 24 9 58v122h192v-129q-5 -83 -31.5 -141t-81.5 -102q-24 -21 -49 -29zM258 842v-158h150v158q0 62 -29 98q-16 16 -45 16q-48 0 -66 -57q-7 -18 -10 -57z" />
<glyph unicode="&#x11a;" horiz-adv-x="628" d="M207 1690h219l141 184h-188l-64 -72l-61 72h-188zM82 1505v-1505h506v227h-285v414h205v242h-205v395h285v227h-506z" />
<glyph unicode="&#x11b;" horiz-adv-x="659" d="M223 1305h219l142 184h-189l-63 -72l-62 72h-188zM600 401h-192v-122q0 -34 -9 -58q-14 -55 -65 -55q-27 0 -43 16q-30 39 -33 97v243h342v326q-3 71 -33 143q-67 146 -233 146q-103 0 -154 -45q-105 -87 -114 -250v-563q3 -78 32 -148q66 -147 234 -147q101 0 155 45 q55 44 81.5 102t31.5 141v129zM258 684v158q3 39 10 57q18 57 66 57q29 0 45 -16q29 -36 29 -98v-158h-150z" />
<glyph unicode="&#x11c;" horiz-adv-x="737" d="M481 1874h-219l-141 -184h188l62 71l63 -71h189zM436 965h221v231q-3 95 -36 162q-29 67 -89 112q-69 52 -170 52q-103 0 -172 -52q-55 -42 -86 -112q-33 -67 -36 -162v-887q-3 -93 24 -164q26 -66 78 -110q57 -51 158 -51t172 88l26 -72h131v750h-309v-187h88v-272 q0 -36 -8 -55q-14 -56 -66 -56q-26 0 -43 17q-30 35 -30 94v905q0 34 8 55q17 56 65 56q29 0 46 -17q28 -35 28 -94v-231z" />
<glyph unicode="&#x11d;" horiz-adv-x="700" d="M463 1489h-219l-142 -184h189l61 71l64 -71h188zM588 541v317q0 15 -2 21t-2 22q-2 4 -6 27q43 24 120 24v185q-43 0 -98 -41q-33 -23 -72 -62q-73 103 -206 103q-99 0 -150 -45q-101 -83 -113 -240v-305q2 -35 17 -92q28 -103 102 -152q-48 -25 -86 -72q-43 -53 -43 -96 q0 -116 125 -149q-71 -33 -111 -70q-51 -48 -51 -100q0 -117 92 -168q79 -46 240 -49q146 0 242 61q112 73 112 225q0 130 -94 197q-71 48 -192 63q-68 10 -107 23q-51 13 -51 47q0 25 29 51q6 -2 20 -2h19q96 0 151 43q106 81 115 234zM385 844v-307q0 -31 -6 -52 q-16 -49 -57 -49q-23 0 -37 17q-26 29 -23 84v307q-3 27 4 51q12 51 56 51q25 0 38 -16q25 -36 25 -86zM289 -51l106 -21q70 -11 94 -32q17 -17 17 -48q0 -36 -53 -57q-46 -18 -105 -18q-68 0 -101.5 21t-33.5 56q0 55 76 99z" />
<glyph unicode="&#x11e;" horiz-adv-x="737" d="M596 1784l-107 94q-13 -17 -30 -25q-36 -22 -88 -22q-28 0 -49 6q-43 12 -66 41l-111 -94q24 -27 60 -49q73 -47 166 -47q56 0 94 14q73 24 131 82zM436 965h221v231q-3 95 -36 162q-29 67 -89 112q-69 52 -170 52q-103 0 -172 -52q-55 -42 -86 -112q-33 -67 -36 -162 v-887q-3 -93 24 -164q26 -66 78 -110q57 -51 158 -51t172 88l26 -72h131v750h-309v-187h88v-272q0 -36 -8 -55q-14 -56 -66 -56q-26 0 -43 17q-30 35 -30 94v905q0 34 8 55q17 56 65 56q29 0 46 -17q28 -35 28 -94v-231z" />
<glyph unicode="&#x11f;" horiz-adv-x="700" d="M578 1399l-107 94q-13 -16 -31 -25q-36 -22 -88 -22q-28 0 -49 6q-42 12 -65 41l-111 -94q25 -29 59 -49q73 -47 166 -47q56 0 94 14q74 24 132 82zM588 541v317q0 15 -2 21t-2 22q-2 4 -6 27q43 24 120 24v185q-43 0 -98 -41q-33 -23 -72 -62q-73 103 -206 103 q-99 0 -150 -45q-101 -83 -113 -240v-305q2 -35 17 -92q28 -103 102 -152q-48 -25 -86 -72q-43 -53 -43 -96q0 -116 125 -149q-71 -33 -111 -70q-51 -48 -51 -100q0 -117 92 -168q79 -46 240 -49q146 0 242 61q112 73 112 225q0 130 -94 197q-71 48 -192 63q-68 10 -107 23 q-51 13 -51 47q0 25 29 51q6 -2 20 -2h19q96 0 151 43q106 81 115 234zM385 844v-307q0 -31 -6 -52q-16 -49 -57 -49q-23 0 -37 17q-26 29 -23 84v307q-3 27 4 51q12 51 56 51q25 0 38 -16q25 -36 25 -86zM289 -51l106 -21q70 -11 94 -32q17 -17 17 -48q0 -36 -53 -57 q-46 -18 -105 -18q-68 0 -101.5 21t-33.5 56q0 55 76 99z" />
<glyph unicode="&#x120;" horiz-adv-x="737" d="M268 1890v-207h207v207h-207zM436 965h221v231q-3 95 -36 162q-29 67 -89 112q-69 52 -170 52q-103 0 -172 -52q-55 -42 -86 -112q-33 -67 -36 -162v-887q-3 -93 24 -164q26 -66 78 -110q57 -51 158 -51t172 88l26 -72h131v750h-309v-187h88v-272q0 -36 -8 -55 q-14 -56 -66 -56q-26 0 -43 17q-30 35 -30 94v905q0 34 8 55q17 56 65 56q29 0 46 -17q28 -35 28 -94v-231z" />
<glyph unicode="&#x121;" horiz-adv-x="700" d="M250 1505v-207h207v207h-207zM588 541v317q0 15 -2 21t-2 22q-2 4 -6 27q43 24 120 24v185q-43 0 -98 -41q-33 -23 -72 -62q-73 103 -206 103q-99 0 -150 -45q-101 -83 -113 -240v-305q2 -35 17 -92q28 -103 102 -152q-48 -25 -86 -72q-43 -53 -43 -96q0 -116 125 -149 q-71 -33 -111 -70q-51 -48 -51 -100q0 -117 92 -168q79 -46 240 -49q146 0 242 61q112 73 112 225q0 130 -94 197q-71 48 -192 63q-68 10 -107 23q-51 13 -51 47q0 25 29 51q6 -2 20 -2h19q96 0 151 43q106 81 115 234zM385 844v-307q0 -31 -6 -52q-16 -49 -57 -49 q-23 0 -37 17q-26 29 -23 84v307q-3 27 4 51q12 51 56 51q25 0 38 -16q25 -36 25 -86zM289 -51l106 -21q70 -11 94 -32q17 -17 17 -48q0 -36 -53 -57q-46 -18 -105 -18q-68 0 -101.5 21t-33.5 56q0 55 76 99z" />
<glyph unicode="&#x122;" horiz-adv-x="737" d="M436 965h221v231q-3 95 -36 162q-29 67 -89 112q-69 52 -170 52q-103 0 -172 -52q-55 -42 -86 -112q-33 -67 -36 -162v-887q-3 -93 24 -164q26 -66 78 -110q57 -51 158 -51t172 88l26 -72h131v750h-309v-187h88v-272q0 -36 -8 -55q-14 -56 -66 -56q-26 0 -43 17 q-30 35 -30 94v905q0 34 8 55q17 56 65 56q29 0 46 -17q28 -35 28 -94v-231zM440 -252v141h-172v-141h64l-41 -133h104z" />
<glyph unicode="&#x123;" horiz-adv-x="700" d="M242 1624v-227h215v227h-72l72 266h-103zM588 541v317q0 15 -2 21t-2 22q-2 4 -6 27q43 24 120 24v185q-43 0 -98 -41q-33 -23 -72 -62q-73 103 -206 103q-99 0 -150 -45q-101 -83 -113 -240v-305q2 -35 17 -92q28 -103 102 -152q-48 -25 -86 -72q-43 -53 -43 -96 q0 -116 125 -149q-71 -33 -111 -70q-51 -48 -51 -100q0 -117 92 -168q79 -46 240 -49q146 0 242 61q112 73 112 225q0 130 -94 197q-71 48 -192 63q-68 10 -107 23q-51 13 -51 47q0 25 29 51q6 -2 20 -2h19q96 0 151 43q106 81 115 234zM385 844v-307q0 -31 -6 -52 q-16 -49 -57 -49q-23 0 -37 17q-26 29 -23 84v307q-3 27 4 51q12 51 56 51q25 0 38 -16q25 -36 25 -86zM289 -51l106 -21q70 -11 94 -32q17 -17 17 -48q0 -36 -53 -57q-46 -18 -105 -18q-68 0 -101.5 21t-33.5 56q0 55 76 99z" />
<glyph unicode="&#x124;" horiz-adv-x="778" d="M502 1874h-219l-142 -184h189l61 71l64 -71h188zM475 655v-655h221v1505h-221v-622h-172v622h-221v-1505h221v655h172z" />
<glyph unicode="&#x125;" d="M289 1309v-283q2 1 24 23q53 53 90 73q27 15 54 15q73 0 118 -74q37 -64 37 -145v-918h-206v887q0 49 -50 49q-22 0 -49 -27q-12 -16 -18 -26v-883h-207v1505h207v-16h168l141 -184h-188l-64 71z" />
<glyph unicode="&#x126;" horiz-adv-x="778" d="M778 1284v-162h-82v-1122h-221v655h-172v-655h-221v1122h-80v162h80v221h221v-221h172v221h221v-221h82zM475 883v239h-172v-239h172z" />
<glyph unicode="&#x127;" d="M289 1253v-227q2 1 24 23q53 53 90 73q27 15 54 15q73 0 118 -74q37 -64 37 -145v-918h-206v887q0 49 -50 49q-22 0 -49 -27q-12 -16 -18 -26v-883h-207v1253h-78v162h78v90h207v-90h112v-162h-112z" />
<glyph unicode="&#x12a;" horiz-adv-x="385" d="M-4 1862v-162h397v162h-397zM82 1505v-1505h221v1505h-221z" />
<glyph unicode="&#x12b;" horiz-adv-x="370" d="M-10 1477v-162h397v162h-397zM82 0h207v1120h-207v-1120z" />
<glyph unicode="&#x12e;" horiz-adv-x="385" d="M303 0h-94q-54 -48 -78 -102q-14 -28 -14 -68q0 -41 30.5 -59.5t71.5 -18.5q39 0 86 19l-16 -138q-55 -18 -105 -18q-96 0 -152.5 51t-56.5 123t68 148q29 37 68 63h-29v1505h221v-1505z" />
<glyph unicode="&#x12f;" horiz-adv-x="370" d="M289 1505v-207h-207v207h207zM289 0h-33q-54 -48 -78 -102q-14 -28 -14 -68q0 -41 30.5 -59.5t71.5 -18.5q38 0 86 19l-16 -138q-55 -18 -105 -18q-96 0 -152 50.5t-56 123.5t67 148q29 37 68 63h-76v1120h207v-1120z" />
<glyph unicode="&#x130;" horiz-adv-x="385" d="M92 1890v-207h207v207h-207zM82 1505v-1505h221v1505h-221z" />
<glyph unicode="&#x131;" horiz-adv-x="370" d="M82 0h207v1120h-207v-1120z" />
<glyph unicode="&#x134;" horiz-adv-x="423" d="M324 1874h-220l-141 -184h189l61 71l63 -71h189zM12 203v-217q184 -11 269 80q71 77 71 213v1226h-221v-1192q0 -52 -18 -73q-35 -46 -101 -37z" />
<glyph unicode="&#x135;" horiz-adv-x="364" d="M436 1321h-153v-23h-207v23h-142l142 184h219zM76 -27v1147h207v-1149q0 -147 -29 -221q-52 -135 -209 -135q-49 0 -70 6q-8 2 -20 6v191q3 -1 9 -2t9 -2q28 -4 39 -4q46 0 60 63q4 32 4 53v47z" />
<glyph unicode="&#x136;" horiz-adv-x="768" d="M303 1505h-221v-1505h221v532l51 123l13 31h6l6 -31l153 -655h216l-230 1010l203 495h-215l-184 -501l-11 -25h-8v526zM440 -252v141h-172v-141h64l-41 -133h104z" />
<glyph unicode="&#x137;" horiz-adv-x="641" d="M289 1505h-207v-1505h207v387l26 66l7 16h10l4 -16l102 -453h199l-188 756l149 364h-186l-101 -293l-12 -36h-10v714zM440 -252v141h-172v-141h64l-41 -133h104z" />
<glyph unicode="&#x139;" horiz-adv-x="604" d="M465 1874h-215l-107 -184h160zM82 1505v-1505h514v205h-293v1300h-221z" />
<glyph unicode="&#x13a;" horiz-adv-x="370" d="M348 1716h-215l-106 -184h159zM82 0h207v1505h-207v-1505z" />
<glyph unicode="&#x13b;" horiz-adv-x="604" d="M82 1505v-1505h514v205h-293v1300h-221zM440 -252v141h-172v-141h64l-41 -133h104z" />
<glyph unicode="&#x13c;" horiz-adv-x="370" d="M82 0h207v1505h-207v-1505zM276 -238v142h-172v-142h64l-41 -133h104z" />
<glyph unicode="&#x13d;" horiz-adv-x="604" d="M592 1509v228h-215v-228h72l-72 -266h102zM82 1505v-1505h514v205h-293v1300h-221z" />
<glyph unicode="&#x13e;" horiz-adv-x="679" d="M82 0h207v1505h-207v-1505zM631 1278v227h-215v-227h71l-71 -266h102z" />
<glyph unicode="&#x13f;" horiz-adv-x="604" d="M82 1505v-1505h514v205h-293v1300h-221zM381 901v-227h215v227h-215z" />
<glyph unicode="&#x140;" horiz-adv-x="585" d="M82 0h207v1505h-207v-1505zM371 877v-228h215v228h-215z" />
<glyph unicode="&#x141;" horiz-adv-x="628" d="M41 782v-221l65 51v-612h515v205h-293v579l121 95v221l-121 -94v499h-222v-671z" />
<glyph unicode="&#x142;" horiz-adv-x="468" d="M131 0h207v801l100 78v221l-100 -78v483h-207v-645l-100 -78v-221l100 78v-639z" />
<glyph unicode="&#x143;" horiz-adv-x="808" d="M567 1874h-215l-106 -184h160zM315 784l215 -784h197v1505h-203v-854h-12l-18 70l-215 784h-197v-1505h203v854h12z" />
<glyph unicode="&#x144;" d="M508 1489h-215l-107 -184h160zM289 0v883q6 10 18 26q27 27 49 27q50 0 50 -49v-887h206v918q0 81 -37 145q-45 74 -118 74q-27 0 -54 -15q-37 -20 -90 -73q-22 -22 -24 -23v94h-207v-1120h207z" />
<glyph unicode="&#x145;" horiz-adv-x="808" d="M315 784l215 -784h197v1505h-203v-854h-12l-18 70l-215 784h-197v-1505h203v854h12zM440 -252v141h-172v-141h64l-41 -133h104z" />
<glyph unicode="&#x146;" d="M289 0v883q6 10 18 26q27 27 49 27q50 0 50 -49v-887h206v918q0 81 -37 145q-45 74 -118 74q-27 0 -54 -15q-37 -20 -90 -73q-22 -22 -24 -23v94h-207v-1120h207zM440 -252v141h-172v-141h64l-41 -133h104z" />
<glyph unicode="&#x147;" horiz-adv-x="808" d="M297 1690h219l141 184h-188l-63 -72l-62 72h-188zM315 784l215 -784h197v1505h-203v-854h-12l-18 70l-215 784h-197v-1505h203v854h12z" />
<glyph unicode="&#x148;" d="M238 1305h219l141 184h-188l-64 -72l-61 72h-189zM289 0v883q6 10 18 26q27 27 49 27q50 0 50 -49v-887h206v918q0 81 -37 145q-45 74 -118 74q-27 0 -54 -15q-37 -20 -90 -73q-22 -22 -24 -23v94h-207v-1120h207z" />
<glyph unicode="&#x150;" horiz-adv-x="724" d="M375 1874h-215l-107 -184h160zM678 1874h-215l-107 -184h160zM657 309v887q-3 95 -36 162q-29 67 -89 112q-69 52 -170 52q-103 0 -172 -52q-55 -42 -86 -112q-33 -67 -36 -162v-887q3 -97 36 -164q30 -67 86 -110q63 -51 172 -51q107 0 170 51q61 46 89 110 q33 67 36 164zM436 1196v-887q0 -36 -8 -55q-14 -55 -66 -55q-27 0 -43 16q-30 35 -30 94v887q0 34 8 55q17 56 65 56q29 0 46 -17q28 -35 28 -94z" />
<glyph unicode="&#x151;" horiz-adv-x="657" d="M340 1489h-215l-107 -184h160zM643 1489h-215l-106 -184h159zM594 272v576q-3 71 -33 143q-67 146 -233 146q-103 0 -154 -45q-102 -86 -111 -250v-563q3 -76 33 -148q66 -147 232 -147q101 0 155 45q54 44 80 102.5t31 140.5zM399 842v-563q3 -34 -6 -58 q-14 -55 -65 -55q-27 0 -43 16q-30 38 -27 97v563q-3 33 6 57q15 57 64 57q29 0 45 -16q29 -36 26 -98z" />
<glyph unicode="&#x152;" horiz-adv-x="983" d="M362 0h580v227h-285v414h205v242h-205v395h285v227h-580q-106 0 -172 -47q-54 -38 -86 -108q-33 -64 -36 -154v-887q3 -91 36 -155q30 -66 86 -105q69 -49 172 -49zM436 1210v-901q0 -36 -8 -55q-14 -55 -66 -55q-27 0 -43 16q-30 35 -30 94v887q0 34 8 55q17 56 65 56 q42 0 60 -37q14 -28 14 -60z" />
<glyph unicode="&#x153;" horiz-adv-x="995" d="M936 401h-193v-122q0 -37 -8 -58q-14 -55 -65 -55q-45 0 -64 47q-12 30 -12 59v250h342v326q-3 71 -33 143q-67 146 -233 146q-103 0 -170 -60q-67 60 -172 60q-103 0 -154 -45q-102 -86 -111 -250v-563q3 -76 33 -148q66 -147 232 -147q103 0 170 57q64 -57 170 -57 q101 0 155 45q55 44 81.5 102t31.5 141v129zM399 842v-563q3 -34 -6 -58q-14 -55 -65 -55q-27 0 -43 16q-30 38 -27 97v563q-3 33 6 57q15 57 64 57q29 0 45 -16q29 -36 26 -98zM594 684v164q0 31 12 61q19 47 64 47q29 0 45 -16q28 -35 28 -98v-158h-149z" />
<glyph unicode="&#x154;" horiz-adv-x="739" d="M532 1874h-215l-106 -184h160zM477 0h221l-141 729q61 41 92 132.5t31 209.5q0 217 -91 325.5t-286 108.5h-221v-1505h221v635h59zM303 840v446q70 0 105 -31q59 -52 59 -192q0 -139 -59 -191q-36 -32 -105 -32z" />
<glyph unicode="&#x155;" horiz-adv-x="503" d="M416 1489h-215l-107 -184h160zM496 907v230q-94 0 -158 -60q-22 -22 -34.5 -45t-14.5 -37v125h-207v-1120h207v778q0 65 45 103q36 34 104 34q34 0 58 -8z" />
<glyph unicode="&#x158;" horiz-adv-x="739" d="M262 1690h219l142 184h-189l-63 -72l-62 72h-188zM477 0h221l-141 729q61 41 92 132.5t31 209.5q0 217 -91 325.5t-286 108.5h-221v-1505h221v635h59zM303 840v446q70 0 105 -31q59 -52 59 -192q0 -139 -59 -191q-36 -32 -105 -32z" />
<glyph unicode="&#x159;" horiz-adv-x="503" d="M145 1305h220l141 184h-189l-63 -72l-61 72h-189zM496 907v230q-94 0 -158 -60q-22 -22 -34.5 -45t-14.5 -37v125h-207v-1120h207v778q0 65 45 103q36 34 104 34q34 0 58 -8z" />
<glyph unicode="&#x15a;" horiz-adv-x="702" d="M514 1874h-215l-106 -184h159zM449 1102l217 20q0 160 -56 267q-73 136 -254 133q-143 -3 -223 -115q-65 -94 -65 -238q0 -61 18 -120q34 -117 109 -234q74 -115 139 -207q30 -46 57 -90q58 -104 58 -166q0 -166 -91 -166q-63 0 -86 82q-18 53 -18 174l-217 -20 q0 -203 55 -303q74 -135 266 -135q167 0 244 114q64 95 64 264q0 107 -66 236q-41 80 -141 229q-94 137 -119 181q-55 95 -55 161q0 147 75 150q48 0 72 -70q17 -52 17 -147z" />
<glyph unicode="&#x15b;" horiz-adv-x="630" d="M479 1489h-215l-106 -184h159zM395 834h193q0 131 -41 200q-63 106 -223 103q-132 -3 -201 -103q-51 -77 -51 -200q0 -105 63 -199q35 -52 133 -146q42 -42 64 -66.5t43.5 -62t21.5 -69.5q0 -135 -71 -135q-55 0 -80 63q-17 40 -17 107h-192q0 -131 49 -215 q74 -127 240 -127q132 0 206 102q58 81 58 205q0 93 -62 194q-33 52 -129 148q-60 56 -90 96q-45 55 -45 105q0 56 12 86q14 45 52 45q41 0 59 -45q8 -27 8 -86z" />
<glyph unicode="&#x15c;" horiz-adv-x="702" d="M463 1874h-219l-142 -184h189l61 71l64 -71h188zM449 1102l217 20q0 160 -56 267q-73 136 -254 133q-143 -3 -223 -115q-65 -94 -65 -238q0 -61 18 -120q34 -117 109 -234q74 -115 139 -207q30 -46 57 -90q58 -104 58 -166q0 -166 -91 -166q-63 0 -86 82q-18 53 -18 174 l-217 -20q0 -203 55 -303q74 -135 266 -135q167 0 244 114q64 95 64 264q0 107 -66 236q-41 80 -141 229q-94 137 -119 181q-55 95 -55 161q0 147 75 150q48 0 72 -70q17 -52 17 -147z" />
<glyph unicode="&#x15d;" horiz-adv-x="630" d="M428 1489h-219l-141 -184h188l61 71l64 -71h188zM395 834h193q0 131 -41 200q-63 106 -223 103q-132 -3 -201 -103q-51 -77 -51 -200q0 -105 63 -199q35 -52 133 -146q42 -42 64 -66.5t43.5 -62t21.5 -69.5q0 -135 -71 -135q-55 0 -80 63q-17 40 -17 107h-192 q0 -131 49 -215q74 -127 240 -127q132 0 206 102q58 81 58 205q0 93 -62 194q-33 52 -129 148q-60 56 -90 96q-45 55 -45 105q0 56 12 86q14 45 52 45q41 0 59 -45q8 -27 8 -86z" />
<glyph unicode="&#x15e;" horiz-adv-x="702" d="M449 1102l217 20q0 160 -56 267q-73 136 -254 133q-143 -3 -223 -115q-65 -94 -65 -238q0 -61 18 -120q34 -117 109 -234q74 -115 139 -207q30 -46 57 -90q58 -104 58 -166q0 -166 -91 -166q-63 0 -86 82q-18 53 -18 174l-217 -20q0 -203 55 -303q74 -135 266 -135 q167 0 244 114q64 95 64 264q0 107 -66 236q-41 80 -141 229q-94 137 -119 181q-55 95 -55 161q0 147 75 150q48 0 72 -70q17 -52 17 -147zM440 -252v141h-172v-141h64l-41 -133h104z" />
<glyph unicode="&#x15f;" horiz-adv-x="630" d="M395 834h193q0 131 -41 200q-63 106 -223 103q-132 -3 -201 -103q-51 -77 -51 -200q0 -105 63 -199q35 -52 133 -146q42 -42 64 -66.5t43.5 -62t21.5 -69.5q0 -135 -71 -135q-55 0 -80 63q-17 40 -17 107h-192q0 -131 49 -215q74 -127 240 -127q132 0 206 102 q58 81 58 205q0 93 -62 194q-33 52 -129 148q-60 56 -90 96q-45 55 -45 105q0 56 12 86q14 45 52 45q41 0 59 -45q8 -27 8 -86zM403 -252v141h-172v-141h64l-41 -133h104z" />
<glyph unicode="&#x160;" horiz-adv-x="702" d="M242 1638h219l141 185h-188l-64 -72l-61 72h-189zM449 1102l217 20q0 160 -56 267q-73 136 -254 133q-143 -3 -223 -115q-65 -94 -65 -238q0 -61 18 -120q34 -117 109 -234q74 -115 139 -207q30 -46 57 -90q58 -104 58 -166q0 -166 -91 -166q-63 0 -86 82q-18 53 -18 174 l-217 -20q0 -203 55 -303q74 -135 266 -135q167 0 244 114q64 95 64 264q0 107 -66 236q-41 80 -141 229q-94 137 -119 181q-55 95 -55 161q0 147 75 150q48 0 72 -70q17 -52 17 -147z" />
<glyph unicode="&#x161;" horiz-adv-x="630" d="M207 1305h219l141 184h-188l-64 -72l-61 72h-188zM395 834h193q0 131 -41 200q-63 106 -223 103q-132 -3 -201 -103q-51 -77 -51 -200q0 -105 63 -199q35 -52 133 -146q42 -42 64 -66.5t43.5 -62t21.5 -69.5q0 -135 -71 -135q-55 0 -80 63q-17 40 -17 107h-192 q0 -131 49 -215q74 -127 240 -127q132 0 206 102q58 81 58 205q0 93 -62 194q-33 52 -129 148q-60 56 -90 96q-45 55 -45 105q0 56 12 86q14 45 52 45q41 0 59 -45q8 -27 8 -86z" />
<glyph unicode="&#x164;" horiz-adv-x="647" d="M217 1690h219l142 184h-189l-63 -72l-62 72h-188zM4 1278h209v-1278h221v1278h209v227h-639v-227z" />
<glyph unicode="&#x165;" horiz-adv-x="811" d="M762 1278v227h-215v-227h71l-71 -266h102zM332 1397h-207v-277h-105v-186h105v-574q0 -154 31 -237q52 -139 206 -139q50 0 80 6q5 1 15.5 4t15.5 4v203q-4 -1 -12 -2t-12 -2q-28 -4 -52 -4q-43 0 -57 67q-8 37 -8 117v557h141v186h-141v277z" />
<glyph unicode="&#x16a;" horiz-adv-x="749" d="M178 1862v-162h397v162h-397zM670 1505h-221v-1196q0 -34 -9 -55q-14 -55 -65 -55q-27 0 -43 16q-31 36 -31 94v1196h-221v-1196q3 -95 37 -164q30 -67 86 -110q63 -51 172 -51q107 0 170 51q59 45 88 110q34 69 37 164v1196z" />
<glyph unicode="&#x16b;" d="M150 1477v-162h397v162h-397zM401 1120v-882q-13 -22 -18 -27q-27 -27 -49 -27q-23 0 -36 10t-13 39v887h-207v-917q0 -83 37 -144q44 -75 118 -75q27 0 56 16q35 19 90 74q18 18 22 20v-94h207v1120h-207z" />
<glyph unicode="&#x16c;" horiz-adv-x="749" d="M602 1784l-106 94q-13 -16 -31 -25q-36 -22 -88 -22q-28 0 -49 6q-43 12 -66 41l-110 -94q25 -29 59 -49q73 -47 166 -47q56 0 94 14q73 24 131 82zM670 1505h-221v-1196q0 -34 -9 -55q-14 -55 -65 -55q-27 0 -43 16q-31 36 -31 94v1196h-221v-1196q3 -95 37 -164 q30 -67 86 -110q63 -51 172 -51q107 0 170 51q59 45 88 110q34 69 37 164v1196z" />
<glyph unicode="&#x16d;" d="M573 1399l-106 94q-13 -16 -31 -25q-36 -22 -88 -22q-28 0 -49 6q-43 12 -66 41l-110 -94q25 -29 59 -49q73 -47 166 -47q56 0 94 14q73 24 131 82zM401 1120v-882q-13 -22 -18 -27q-27 -27 -49 -27q-23 0 -36 10t-13 39v887h-207v-917q0 -83 37 -144q44 -75 118 -75 q27 0 56 16q35 19 90 74q18 18 22 20v-94h207v1120h-207z" />
<glyph unicode="&#x16e;" horiz-adv-x="749" d="M225 1806q0 -62 45 -102.5t109 -40.5t107.5 40.5t43.5 102.5t-43.5 103t-107.5 41t-109 -41t-45 -103zM303 1806q0 29 23 50.5t53 21.5t53 -21.5t23 -50.5t-23 -50t-53 -21t-53 21t-23 50zM670 1505h-221v-1196q0 -34 -9 -55q-14 -55 -65 -55q-27 0 -43 16q-31 36 -31 94 v1196h-221v-1196q3 -95 37 -164q30 -67 86 -110q63 -51 172 -51q107 0 170 51q59 45 88 110q34 69 37 164v1196z" />
<glyph unicode="&#x16f;" d="M195 1421q0 -62 44.5 -102.5t108.5 -40.5t108 40.5t44 102.5t-44 103t-108 41t-108.5 -41t-44.5 -103zM272 1421q0 29 23 50.5t53 21.5t53 -21.5t23 -50.5t-23 -50t-53 -21t-53 21t-23 50zM401 1120v-882q-13 -22 -18 -27q-27 -27 -49 -27q-23 0 -36 10t-13 39v887h-207 v-917q0 -83 37 -144q44 -75 118 -75q27 0 56 16q35 19 90 74q18 18 22 20v-94h207v1120h-207z" />
<glyph unicode="&#x170;" horiz-adv-x="749" d="M387 1874h-215l-106 -184h159zM690 1874h-215l-106 -184h159zM670 1505h-221v-1196q0 -34 -9 -55q-14 -55 -65 -55q-27 0 -43 16q-31 36 -31 94v1196h-221v-1196q3 -95 37 -164q30 -67 86 -110q63 -51 172 -51q107 0 170 51q59 45 88 110q34 69 37 164v1196z" />
<glyph unicode="&#x171;" d="M356 1489h-215l-106 -184h160zM659 1489h-215l-106 -184h160zM401 1120v-882q-13 -22 -18 -27q-27 -27 -49 -27q-23 0 -36 10t-13 39v887h-207v-917q0 -83 37 -144q44 -75 118 -75q27 0 56 16q35 19 90 74q18 18 22 20v-94h207v1120h-207z" />
<glyph unicode="&#x172;" horiz-adv-x="749" d="M481 0h97q-54 -48 -78 -102q-15 -30 -15 -68q0 -40 31 -59t72 -19q38 0 86 19l-17 -138q-55 -18 -104 -18q-96 0 -152.5 51t-56.5 123t68 148q29 37 65 61q-51 -14 -102 -14q-109 0 -172 51q-56 43 -86 110q-34 69 -37 164v1196h221v-1196q0 -58 31 -94q16 -16 43 -16 q51 0 65 55q9 21 9 55v1196h221v-1196q-3 -95 -37 -164q-29 -65 -88 -110q-32 -25 -64 -35z" />
<glyph unicode="&#x173;" d="M608 0h-94q-54 -48 -78 -102q-14 -28 -14 -68q0 -41 30.5 -59.5t71.5 -18.5q38 0 86 19l-16 -138q-55 -18 -105 -18q-96 0 -152 50.5t-56 123.5t67 148q29 37 68 63h-15v94q-4 -2 -22 -20q-55 -55 -90 -74q-29 -16 -56 -16q-74 0 -118 75q-37 61 -37 144v917h207v-887 q0 -29 13 -39t36 -10q22 0 49 27q5 5 18 27v882h207v-1120z" />
<glyph unicode="&#x178;" horiz-adv-x="704" d="M113 1839v-201h190v201h-190zM401 1839v-201h191v201h-191zM344 1024l-111 481h-217l226 -864v-641h221v641l225 864h-217l-111 -481l-6 -14h-4z" />
<glyph unicode="&#x179;" horiz-adv-x="626" d="M477 1874h-215l-106 -184h159zM20 238v-238h586v219h-352l352 1067v219h-536v-219h297z" />
<glyph unicode="&#x17a;" horiz-adv-x="532" d="M430 1489h-215l-106 -184h159zM12 168v-168h504v188h-285l285 764v168h-459v-188h240z" />
<glyph unicode="&#x17b;" horiz-adv-x="626" d="M213 1890v-207h207v207h-207zM20 238v-238h586v219h-352l352 1067v219h-536v-219h297z" />
<glyph unicode="&#x17c;" horiz-adv-x="532" d="M166 1505v-207h207v207h-207zM12 168v-168h504v188h-285l285 764v168h-459v-188h240z" />
<glyph unicode="&#x17d;" horiz-adv-x="626" d="M229 1638h220l141 185h-189l-63 -72l-62 72h-188zM20 238v-238h586v219h-352l352 1067v219h-536v-219h297z" />
<glyph unicode="&#x17e;" horiz-adv-x="532" d="M166 1305h219l141 184h-188l-64 -72l-61 72h-188zM12 168v-168h504v188h-285l285 764v168h-459v-188h240z" />
<glyph unicode="&#x21a;" horiz-adv-x="647" d="M4 1278h209v-1278h221v1278h209v227h-639v-227zM440 -252v141h-172v-141h64l-41 -133h104z" />
<glyph unicode="&#x21b;" horiz-adv-x="501" d="M332 1397h-207v-277h-105v-186h105v-574q0 -154 31 -237q52 -139 206 -139q50 0 80 6q5 1 15.5 4t15.5 4v203q-4 -1 -12 -2t-12 -2q-28 -4 -52 -4q-43 0 -57 67q-8 37 -8 117v557h141v186h-141v277zM440 -252v141h-172v-141h64l-41 -133h104z" />
<glyph unicode="&#x2c6;" horiz-adv-x="1021" d="M621 1489h-220l-141 -184h189l61 71l63 -71h189z" />
<glyph unicode="&#x2da;" horiz-adv-x="1021" d="M358 1421q0 -62 45 -102.5t109 -40.5t108 40.5t44 102.5t-44 103t-108 41t-109 -41t-45 -103zM436 1421q0 29 23 50.5t53 21.5t53 -21.5t23 -50.5t-23 -50t-53 -21t-53 21t-23 50z" />
<glyph unicode="&#x2dc;" horiz-adv-x="1024" d="M313 1456v-151q6 3 17.5 8.5t15.5 7.5q46 16 76 16q51 -3 92 -20q43 -19 88 -19q20 0 41 7q44 11 68 32v152q-6 -3 -17.5 -8.5t-15.5 -7.5q-49 -17 -76 -17q-41 3 -90 23q-46 16 -90 16q-23 0 -41 -6q-43 -14 -68 -33z" />
<glyph unicode="&#x2000;" horiz-adv-x="975" />
<glyph unicode="&#x2001;" horiz-adv-x="1950" />
<glyph unicode="&#x2002;" horiz-adv-x="975" />
<glyph unicode="&#x2003;" horiz-adv-x="1950" />
<glyph unicode="&#x2004;" horiz-adv-x="650" />
<glyph unicode="&#x2005;" horiz-adv-x="487" />
<glyph unicode="&#x2006;" horiz-adv-x="325" />
<glyph unicode="&#x2007;" horiz-adv-x="325" />
<glyph unicode="&#x2008;" horiz-adv-x="243" />
<glyph unicode="&#x2009;" horiz-adv-x="390" />
<glyph unicode="&#x200a;" horiz-adv-x="108" />
<glyph unicode="&#x2010;" horiz-adv-x="444" d="M74 649v-194h297v194h-297z" />
<glyph unicode="&#x2011;" horiz-adv-x="444" d="M74 649v-194h297v194h-297z" />
<glyph unicode="&#x2012;" horiz-adv-x="444" d="M74 649v-194h297v194h-297z" />
<glyph unicode="&#x2013;" horiz-adv-x="806" d="M74 844v-195h659v195h-659z" />
<glyph unicode="&#x2014;" horiz-adv-x="972" d="M74 844v-195h825v195h-825z" />
<glyph unicode="&#x2018;" horiz-adv-x="309" d="M49 1239v-227h215v227h-71l71 266h-102z" />
<glyph unicode="&#x2019;" horiz-adv-x="309" d="M260 1278v227h-215v-227h72l-72 -266h102z" />
<glyph unicode="&#x201a;" horiz-adv-x="309" d="M260 0v227h-215v-227h72l-72 -266h102z" />
<glyph unicode="&#x201c;" horiz-adv-x="624" d="M53 1239v-227h215v227h-71l71 266h-102zM356 1239v-227h215v227h-71l71 266h-102z" />
<glyph unicode="&#x201d;" horiz-adv-x="624" d="M268 1278v227h-215v-227h72l-72 -266h103zM571 1278v227h-215v-227h72l-72 -266h103z" />
<glyph unicode="&#x201e;" horiz-adv-x="624" d="M268 0v227h-215v-227h72l-72 -266h103zM571 0v227h-215v-227h72l-72 -266h103z" />
<glyph unicode="&#x2022;" horiz-adv-x="663" d="M82 817q0 -104 74 -178t178 -74q102 0 176 74q72 72 72 178q0 104 -72 176t-176 72q-106 0 -178 -72q-74 -74 -74 -176z" />
<glyph unicode="&#x2026;" horiz-adv-x="964" d="M53 227v-227h215v227h-215zM375 227v-227h215v227h-215zM696 227v-227h215v227h-215z" />
<glyph unicode="&#x202f;" horiz-adv-x="390" />
<glyph unicode="&#x205f;" horiz-adv-x="487" />
<glyph unicode="&#x20ac;" horiz-adv-x="813" d="M53 958v-137h107v-137h-107v-137h107v-238q3 -95 37 -164q30 -67 86 -110q63 -51 172 -51q107 0 170 51q59 45 88 110q34 69 37 164v84h-207v-84q0 -36 -8 -55q-18 -55 -76 -55q-27 0 -43 16q-32 37 -35 94v238h233v137h-233v137h233v137h-233v238q4 39 10 55 q21 56 68 56q34 0 51 -17q33 -36 33 -94v-84h207v84q-3 93 -37 162q-30 68 -88 112q-69 52 -170 52q-103 0 -172 -52q-55 -42 -86 -112q-34 -69 -37 -162v-238h-107z" />
<glyph unicode="&#x2122;" horiz-adv-x="937" d="M74 1401h104v-580h113v580h104v104h-321v-104zM623 821h51l78 449v-449h104v684h-137l-68 -319h-6l-67 319h-138v-684h103v449z" />
<glyph unicode="&#x25fc;" horiz-adv-x="1116" d="M0 1116h1116v-1116h-1116v1116z" />
<glyph unicode="&#xfb01;" horiz-adv-x="772" d="M483 0h207v1120h-358v29v51q0 35 8 62q18 71 76 71q28 0 82 -6q20 -4 28 -6v184q-7 1 -22.5 3t-22.5 3q-40 9 -102 9q-167 0 -223 -140q-31 -73 -31 -229v-31h-105v-186h105v-934h207v934h151v-934z" />
<glyph unicode="&#xfb02;" horiz-adv-x="772" d="M483 0h207v1505h-164q-7 1 -22.5 3t-22.5 3q-40 9 -102 9q-167 0 -223 -140q-31 -73 -31 -229v-31h-105v-186h105v-934h207v934h104v186h-104v29v51q0 35 8 62q18 71 76 71q31 0 67 -4v-1329z" />
</font>
</defs>
</svg>
